<svg version="1.2" xmlns="http://www.w3.org/2000/svg" viewBox="0 0 1500 1499" width="1500" height="1499">
	<title>avatars-000360959114-abjidy-t500x500-svg</title>
	<style>
		.s0 { fill: #fcfefd } 
		.s1 { fill: #02807d } 
	</style>
	<g id="#fcfefdff">
		<path id="Layer" fill-rule="evenodd" class="s0" d="m230.5 337.3c44.2 0.1 88.3 0 132.5 0 15.8 0.2 31.9 0.5 47.3 4.4 25.6 6.5 48.6 24.2 59.7 48.4 12.5 29.5 9 66.1-11.9 90.9-11.4 13.7-28 21.3-44.5 26.8 19.2 6.2 38.7 14.7 52 30.5 36.8 40.9 28.7 115.2-19.2 144.1-21.7 15-48.8 18.1-74.4 18.2-47.2 0.2-94.4 0.5-141.6-0.1 0.1-121-0.2-242.1 0.1-363.2zm43.3 34.4c0.1 40.6-0.1 81.2 0.1 121.8 19.7 1.2 39.4-0.1 59.1 0.2 21.7-0.4 44.5 2 65-6.6 38.3-14.5 48-72.7 17.7-99.7-13.2-12.5-32-15.7-49.5-15.8q-46.2-0.2-92.4 0.1zm0 155.6c0 45.9 0.1 91.7-0.1 137.6 30.7 1 61.5 0.3 92.3 0.4 22.2-0.1 46.8-4.4 62.4-21.8 25-29.2 19-78.5-10.9-102.1-13.6-10.6-31.5-14-48.4-13.9-31.7-0.3-63.5-0.1-95.3-0.2zm363.2-101.6c26.6-2.7 54.8 1.5 77.1 17.1 29.8 19.4 46.9 53.3 53.4 87.5 7.7 44.2 1.3 92.6-25.8 129.3-33.5 46.7-103.6 60.1-152.8 31.6-25.6-15-42.4-41.6-51.2-69.3-12.5-41.4-12.1-87.7 5.7-127.5 15.8-37.7 52.7-65.5 93.6-68.7zm-3 33.3c-14.6 3-27.6 11.7-37.1 22.9-15.4 19.6-20.9 45.1-22.1 69.5-1.2 28.3 0.8 57.7 13.3 83.6 11.6 24.4 38.9 39.9 65.8 37.7 21.9-0.6 42.7-13.1 54-31.8 15.5-23.9 18-53.3 17.5-81.1-0.4-25.3-4.1-52-19-73.1-15.8-22.5-45.7-33.8-72.4-27.7zm276.2-32c28.5-4.5 59.6-1.8 84.1 14.6 29.9 18.8 47.8 52.2 54.5 86.1 7.4 38.7 3.8 80.3-14.7 115.4-14.3 27-39.1 49.1-68.8 57.4-33.7 10.1-72.6 6.9-101.7-14.1-24.4-17.3-39.2-45.1-46.6-73.6-10.6-42.5-7.9-89.6 13.2-128.7 16.3-29.8 46.4-51.7 80-57.1zm3 32.7c-16 4.7-30.4 15.2-39.3 29.3-13.1 20-16.6 44.4-17.5 67.8-0.4 27.3 1.9 55.7 14.6 80.3 12.4 24.2 40.7 38.6 67.6 35.4 27.4-1.5 50.1-22.7 59.5-47.5 10-26.2 10.1-54.8 8.5-82.3-2.3-23-8.8-47.1-25.1-64.2-17.5-17.5-44.2-25.7-68.3-18.8zm176.2-28.2q93.4 0.1 186.8-0.1c-0.6 9.1 2.4 19.5-3.1 27.6-48 69.9-96.9 139.2-144.3 209.4 49.1 0.5 98.2 0 147.3 0.3 0.2 10.6 0.2 21.3 0.2 32-66 0-132 0.5-198-0.2 0.2-10.4-0.6-20.9 0.6-31.2 3.4-7.9 9.1-14.5 13.9-21.5 42.7-61.1 85.7-121.9 128.4-183-43.9-0.3-87.8-0.1-131.6-0.1-0.2-11.1-0.2-22.2-0.2-33.3zm-762.2 382.9c16.8-0.6 33.5-0.5 50.2 0 34.4 105.2 68.3 210.5 102.7 315.7 5.1 16.8 11.3 33.2 15.6 50.2-14.2 0.5-28.5 0.6-42.7 0.2-12.7-35.5-25.1-71-36.9-106.7-45.4-0.2-90.9-0.2-136.3 0-10.8 35.6-22 71-32.4 106.7-12.7 0.2-25.5 0.3-38.2 0 38.7-122.2 79-244 118-366.1zm22.3 48.6c-12.6 38.9-25.1 77.8-37.6 116.8-6.3 19.6-13.6 39-18.5 59.1q55.9 0.1 111.8-0.1c-17.7-58.8-36.6-117.4-55.7-175.8zm190.1-48.7c13.5-0.4 27-0.4 40.5 0 0.1 122.1 0.3 244.2-0.1 366.3-13.4 0.1-26.9 0.3-40.4 0 0-122.1-0.1-244.2 0-366.3zm124.8 0.3c13.4-0.8 26.9-0.7 40.3-0.3 0.1 122.1 0.2 244.2 0 366.4-13.5 0-26.9 0-40.3-0.2 0.2-122 0.2-244 0-365.9zm169.4 99.1c44.2-20.2 103.2-14.7 136.6 22.9 27.5 29.8 35.8 71.8 35.8 111.2-66.4 0.3-132.8 0.4-199.2 0-1.7 29.8 3.9 64.1 28.4 84 27.4 24 71.8 27.3 101.1 4.8 12.4-9.2 20.2-22.8 26.8-36.5 12.8 1.7 25.6 3.8 38.3 6.6-8.8 24.3-25.1 46.1-47.3 59.7-35.4 22.6-82.1 25.8-120.4 9-26.1-11.4-46.3-33.7-57.9-59.3-15-33.8-17.8-72.6-10.5-108.6 7.8-39 31.6-76.5 68.3-93.8zm12 33.1c-23.2 15.4-35.6 43.1-37.5 70.4 51.2 0.1 102.4 0 153.7 0 0.2-21-5.6-42.4-19.3-58.7-23-27.8-67.7-31.9-96.9-11.7zm304.1-34.9c22.9-11.2 50.3-12.7 74.3-4.2 26.5 9.4 47.3 33.1 53.1 60.6 4.8 21.6 3.1 43.9 3.5 65.8-0.6 48.9 0.9 97.7 0 146.6-13.7 0-27.5 0-41.2 0 0-59.9 0-119.7 0-179.6-0.1-15.6-1.6-32.9-12.5-45.1-16.3-18.8-45.2-22.9-67.5-13.3-15.7 7-30 18.4-38.3 33.8-10.2 17.3-13.1 37.6-13.3 57.4-0.2 48.9 0.2 97.8-0.1 146.7-13.9 0.1-27.8 0.3-41.8-0.2 0.5-90.4 0.2-180.9 0.2-271.3 13.1-0.2 26.2-0.2 39.4 0-0.3 14.7-0.5 29.4 0.6 44.1 11.6-16.5 24.7-32.8 43.6-41.3z"/>
	</g>
	<g id="#02807dff">
		<path id="Layer" fill-rule="evenodd" class="s1" d="m37.1 60.1c29.6-35.8 74.9-60 122-59.1 394.9 0 790-0.1 1184.9 0 33.9-0.1 66.6 13.5 93.2 33.9 34.5 26.6 56.7 67.3 62.8 110.2v1208c-5 47-30.9 91.2-69.8 118.2-19 13.8-41.6 21.8-64.3 27.7h-1232c-44.4-9.7-85.5-36.4-109.4-75.5-13-20.3-20.4-43.8-24.5-67.4v-1216.6c7.1-28.6 17.6-56.9 37.1-79.4zm193.5 277.2c-0.4 121.1-0.1 242.2-0.2 363.3 47.2 0.5 94.4 0.2 141.6 0 25.6-0.1 52.7-3.2 74.4-18.2 47.9-28.9 56-103.2 19.2-144.1-13.3-15.8-32.8-24.3-52-30.5 16.5-5.5 33.1-13.1 44.5-26.8 20.9-24.8 24.4-61.4 11.9-90.9-11.1-24.2-34.1-41.9-59.7-48.4-15.4-3.9-31.5-4.2-47.3-4.4-44.2 0-88.3 0.1-132.4 0zm406.4 88.5c-40.9 3.1-77.8 30.9-93.6 68.6-17.8 39.8-18.2 86.1-5.7 127.5 8.8 27.7 25.6 54.3 51.2 69.3 49.2 28.6 119.3 15.1 152.8-31.6 27.1-36.7 33.5-85.1 25.8-129.3-6.5-34.2-23.6-68.1-53.4-87.5-22.3-15.6-50.5-19.8-77.1-17zm273.2 1.2c-33.6 5.4-63.7 27.3-80 57.1-21.1 39.1-23.8 86.2-13.2 128.7 7.4 28.5 22.2 56.3 46.6 73.6 29.1 21 68 24.2 101.7 14.2 29.7-8.4 54.5-30.5 68.8-57.5 18.5-35.1 22.1-76.7 14.7-115.3-6.7-34-24.6-67.4-54.5-86.2-24.5-16.4-55.6-19.1-84.1-14.6zm179.2 4.5c0 11 0 22.1 0.2 33.2 43.8 0 87.7-0.2 131.6 0.1-42.7 61.1-85.7 121.9-128.4 183-4.8 7-10.5 13.6-13.9 21.5-1.2 10.3-0.4 20.8-0.6 31.2 66 0.7 132 0.2 198 0.2 0-10.7 0-21.4-0.2-32-49.1-0.3-98.2 0.2-147.3-0.2 47.4-70.3 96.3-139.6 144.3-209.5 5.5-8.1 2.5-18.5 3.1-27.6q-93.4 0.2-186.8 0.1zm-762.2 382.8c-39 122.1-79.3 243.9-118 366.1 12.7 0.3 25.5 0.2 38.2 0 10.4-35.7 21.6-71.1 32.4-106.7 45.4-0.2 90.9-0.2 136.3 0 11.8 35.7 24.2 71.2 36.9 106.7 14.2 0.4 28.5 0.3 42.7-0.1-4.3-17.1-10.5-33.5-15.6-50.3-34.4-105.2-68.3-210.5-102.7-315.7-16.7-0.5-33.4-0.6-50.2 0zm212.4-0.1c-0.1 122.1 0 244.2 0 366.3 13.5 0.3 27 0.1 40.4 0 0.4-122.1 0.2-244.2 0.1-366.3-13.5-0.4-27-0.4-40.5 0zm124.8 0.3c0.2 121.9 0.2 243.9 0 365.9 13.4 0.2 26.8 0.2 40.3 0.2 0.2-122.2 0.1-244.3 0-366.4-13.4-0.4-26.9-0.5-40.3 0.3zm169.4 99.1c-36.7 17.4-60.5 54.8-68.3 93.8-7.3 36-4.5 74.8 10.5 108.6 11.6 25.6 31.8 47.9 57.9 59.3 38.3 16.8 85 13.6 120.4-9 22.2-13.6 38.5-35.4 47.3-59.7-12.7-2.8-25.5-4.9-38.3-6.6-6.6 13.7-14.4 27.3-26.8 36.5-29.3 22.5-73.7 19.2-101.1-4.8-24.5-19.9-30.1-54.2-28.4-84 66.4 0.4 132.8 0.3 199.2 0 0-39.4-8.3-81.4-35.8-111.2-33.4-37.6-92.4-43.1-136.6-22.9zm316.1-1.8c-18.9 8.5-32 24.8-43.6 41.3-1.1-14.7-0.9-29.4-0.6-44.1-13.2-0.2-26.3-0.2-39.4 0 0 90.4 0.3 180.9-0.2 271.3 14 0.5 27.9 0.3 41.8 0.2 0.3-48.9-0.1-97.8 0.1-146.7 0.2-19.8 3.1-40.1 13.3-57.4 8.3-15.4 22.6-26.8 38.3-33.8 22.3-9.6 51.2-5.5 67.5 13.3 10.9 12.2 12.4 29.5 12.5 45.1 0 59.9 0 119.7 0 179.6 13.7 0 27.5 0 41.2 0 0.9-48.9-0.6-97.7 0-146.6-0.4-21.9 1.3-44.2-3.5-65.8-5.8-27.5-26.6-51.2-53.1-60.6-24-8.5-51.4-7-74.3 4.2zm-876.1-540.1q46.2-0.3 92.4-0.1c17.5 0.1 36.3 3.3 49.5 15.8 30.3 27 20.6 85.2-17.7 99.7-20.5 8.6-43.3 6.2-65 6.6-19.7-0.3-39.4 1-59.1-0.2-0.2-40.6 0-81.2-0.1-121.8zm360.2 87.4c26.7-6.2 56.6 5.1 72.4 27.6 14.9 21.1 18.6 47.8 19 73.1 0.5 27.8-2 57.2-17.5 81.1-11.3 18.7-32.1 31.2-54 31.8-26.9 2.2-54.2-13.3-65.8-37.7-12.5-25.9-14.5-55.3-13.3-83.6 1.2-24.4 6.7-49.9 22.1-69.5 9.5-11.2 22.5-19.9 37.1-22.8zm279.2 0.6c24.1-6.9 50.8 1.3 68.3 18.8 16.3 17.1 22.8 41.2 25.1 64.2 1.6 27.5 1.5 56.2-8.5 82.3-9.4 24.8-32.1 46-59.5 47.5-26.9 3.2-55.2-11.2-67.6-35.4-12.7-24.6-15-53-14.6-80.2 0.9-23.4 4.4-47.9 17.5-67.9 8.9-14.1 23.3-24.6 39.3-29.3zm-639.4 67.6c31.8 0.1 63.6-0.1 95.3 0.2 16.9-0.1 34.8 3.3 48.4 13.9 29.9 23.6 35.9 72.9 10.9 102.2-15.6 17.3-40.2 21.6-62.4 21.7-30.8-0.1-61.6 0.6-92.3-0.4 0.2-45.9 0.1-91.7 0.1-137.6zm75.7 335.6c19 58.5 38 117 55.7 175.8q-55.9 0.2-111.8 0.1c4.9-20.1 12.2-39.4 18.5-59.1 12.5-39 25-77.9 37.6-116.8zm496.3 83.8c29.2-20.2 73.9-16.1 96.9 11.7 13.7 16.3 19.5 37.7 19.2 58.7-51.2 0-102.4 0.1-153.6 0 1.9-27.3 14.3-55 37.5-70.4z"/>
	</g>
</svg>