<svg xmlns="http://www.w3.org/2000/svg" width="300" height="252.898" class="logo-svg"><path d="m 184.66425,177.16766 c -3.88025,8.05498 -6.56773,8.94583 -6.60128,8.94583 -0.29819,0 -5.64705,-1.62888 -12.14396,-22.73731 -5.26686,-16.9747 -9.61677,-40.33822 -13.83994,-62.93762 l -0.0671,-0.37274 C 147.72916,77.104855 143.30097,53.36114 137.75456,35.503034 132.64798,19.150805 124.73839,0.36084003 108.77381,0.17074121 92.593044,0.36084003 84.664806,19.139624 79.54332,35.495578 73.952178,53.472962 69.479262,77.347141 65.192718,100.43856 c -4.208268,22.58075 -8.573084,45.92937 -13.828758,62.88917 -6.523,21.1457 -11.886769,22.77458 -11.92777,22.77458 -0.253465,0 -4.197084,-0.98032 -9.516124,-14.80534 v 29.0143 a 17.518912,17.518912 0 0 0 9.516124,2.68002 c 15.480009,0.2311 23.445526,-19.68082 28.071262,-34.66508 5.557596,-17.89166 10.004418,-41.7472 14.30214,-64.80134 C 86.025318,80.914291 90.38268,57.539587 95.675628,40.531333 102.64592,18.252495 107.8084,17.074628 108.77008,17.059718 c 0.74549,0 5.90052,1.20396 12.86708,23.482796 5.24822,16.892704 9.58322,40.144395 13.79149,62.620796 l 0.0671,0.37274 c 4.29773,23.07651 8.74455,46.94323 14.29096,64.81624 4.61083,14.96563 12.56143,34.87756 28.28746,34.64645 12.52788,0.1901 20.09828,-12.87826 24.97377,-25.82362 z"/><path d="m 17.213263,121.19288 c 3.049036,15.53964 6.269534,30.38598 9.948505,42.1423 2.635293,8.49481 5.054393,13.79149 7.037385,17.14617 v 21.7719 C 21.846457,198.58174 15.129631,181.5623 11.033188,168.35603 6.8696502,155.02301 3.3248659,138.36141 0,121.17797 Z M 296.55046,36.263428 c 0.72312,0.678392 1.09959,1.953171 1.37541,2.851482 0.1491,0.503202 0.66349,2.366917 1.49098,1.576701 0.74549,-0.697028 0.0522,-2.262549 -0.14538,-3.060218 -0.21991,-0.872217 -0.31682,-1.789164 -0.63365,-2.51974 -0.1081,-0.257192 -0.70076,-0.85358 -0.65231,-1.118228 0.0932,-0.525568 0.37275,-0.916947 0.68213,-0.812579 0.71567,0.219918 1.6438,-0.622481 1.23005,-1.789166 -0.37274,-1.04368 -1.20396,0.372743 -2.10227,-0.082 -0.42865,-0.208737 -0.74549,-0.544205 -1.25615,-0.603844 a 7.9058754,7.9058754 0 0 0 -0.99894,-0.06337 c -0.21246,-0.175189 -0.56285,-0.443564 -0.71567,-0.547932 -1.38288,-0.868491 -5.07303,-6.560274 -8.96819,-8.095974 -3.89517,-1.5357 -1.86371,-5.028301 -10.55608,-9.426666 -0.20501,-0.104368 2.60919,-2.6091994 0.71567,-6.9181067 -1.09587,-2.4861948 -6.33663,-9.4527579 -16.88153,-2.9595782 0,0 -3.76842,-0.063366 -5.91915,-0.2161907 -2.15073,-0.1528246 -10.25043,-1.69225252 -11.88677,-1.69225252 -1.63634,0 -4.25299,0.20500848 -6.97029,3.38077762 -2.71729,3.1757687 -7.79032,9.5832175 -8.96819,10.8654525 -1.17788,1.282236 -3.33232,3.995803 -4.10017,5.993705 -0.76786,1.997902 -5.53151,15.066265 -6.15026,21.059968 -0.61876,5.993705 -4.58474,8.397895 -6.33663,27.467417 -0.82004,8.863824 2.92231,9.12102 1.89354,33.047384 0,0 -0.4063,11.12264 -0.97287,14.35059 -0.56656,3.22796 -2.85148,9.88142 -5.6396,15.67011 -2.78811,5.78869 -1.79289,5.94152 -2.15072,8.04379 -0.35783,2.10227 -2.00162,8.40535 -2.40791,9.78823 -0.40629,1.38288 0.18637,2.88876 1.02504,2.98194 0.83867,0.0932 0.76784,0.71567 1.94571,1.0735 1.17787,0.35783 1.79289,-0.10437 2.7173,-1.94944 0.9244,-1.84508 5.7365,-9.42667 9.16947,-11.88677 3.43297,-2.4601 4.47292,-2.98195 3.58951,-5.07303 -0.8834,-2.09109 -2.0799,-3.35469 -2.37437,-3.82807 -0.29447,-0.47339 -0.13791,-3.85789 0.93932,-7.75305 1.07722,-3.89516 1.38287,-5.07303 5.9937,-17.98484 4.61083,-12.911816 3.48888,-15.886304 3.38078,-19.934288 -0.1081,-4.04799 -0.15283,-8.047518 2.15445,-13.836216 2.30728,-5.788692 4.04799,-10.399524 4.86802,-13.418741 0.82003,-3.019216 3.72742,-3.846705 5.12521,-6.86965 1.39779,-3.022944 1.5357,-6.303081 1.02505,-9.989507 -0.51066,-3.686426 -2.7173,-7.082112 -2.30728,-8.968191 0.32056,-1.490971 1.64753,-2.952122 4.78602,-4.916478 a 20.575403,20.575403 0 0 1 0.95049,2.404193 c 0.25719,0.972858 0.9244,5.430862 1.59161,6.508089 0.66721,1.077225 1.58416,2.512284 1.33069,3.842977 -0.25347,1.330691 -1.38287,3.332321 -1.33069,4.305179 a 1.2896902,1.2896902 0 0 0 0.9244,1.330692 c 0.40629,0.208735 0.15282,1.79662 1.27851,1.79662 0.15283,0 0.15283,1.893533 1.33442,1.278507 0,0 0.40629,3.026672 1.63635,1.796621 1.39405,-1.394057 1.89726,-5.024573 1.89726,-5.43459 0,-0.410018 2.72847,0.745485 3.05649,0.298194 0.32801,-0.447291 -0.64858,-2.296095 -1.57298,-2.653928 -0.9244,-0.357834 -1.11823,-1.79662 -2.19919,-2.307279 -1.08095,-0.510658 -0.15654,-7.53313 -0.61502,-9.378207 -0.45847,-1.845077 -1.22632,-3.287592 -1.22632,-4.517643 a 23.732535,23.732535 0 0 1 0.37274,-3.496328 c 3.72743,-2.161908 6.86965,-4.29027 7.68223,-5.881881 1.11823,-2.20291 10.95864,-2.680021 15.42409,2.255094 2.78067,3.075128 15.60675,10.272792 18.40977,12.050774 0.11928,0.402563 0.15283,0.879674 0.25347,1.278509 0.14164,0.536749 0.25347,0.644845 0.19383,1.207687 -0.30937,2.873845 0.74549,2.366917 1.26359,1.770528 0.30192,0.227373 0.20874,0.547932 0.2721,0.85358 0.0932,0.451018 0.0932,1.166684 0.88341,1.25987 0.59266,0.07082 0.90204,-0.939312 1.07349,-1.833893 0.6523,0.946765 0.37275,2.609197 1.49098,3.164584 0.90576,0.458475 0.97659,-0.868489 0.74549,-2.307277 z M 52.236178,231.39802 l -0.79767,5.28177 h 8.040063 c -0.08946,0.56284 -2.46383,16.20685 -2.46383,16.20685 h 5.218399 c 0,0 2.400462,-15.78565 2.463828,-16.20685 h 8.025156 l 0.801396,-5.26314 H 52.236178 Z m 45.09443,0 h -4.923936 c 0,0 -2.404188,15.78193 -2.46756,16.21058 h -10.80954 c 0.08573,-0.5703 2.463834,-16.21058 2.463834,-16.21058 h -5.263134 l -2.553288,16.77343 a 4.100171,4.100171 0 0 0 0.801402,3.33231 c 0.745482,0.89832 1.8078,1.35678 3.179496,1.35678 h 12.032136 a 5.0320281,5.0320281 0 0 0 3.563424,-1.35678 5.5203211,5.5203211 0 0 0 1.710888,-3.25404 l 2.564472,-16.85916 z m 22.267652,3.3025 c -0.18264,-2.17309 -1.58043,-3.3025 -4.04053,-3.3025 h -14.91717 l -3.265228,21.46999 h 5.218408 c 0,0 2.40046,-15.78567 2.46382,-16.20687 h 9.12102 c -0.0783,0.50321 -0.62248,4.10018 -0.62248,4.10018 h 5.26686 l 0.71193,-4.65929 z m 96.48821,-3.3025 H 204.0096 a 4.9910263,4.9910263 0 0 0 -3.50006,1.40897 5.4010435,5.4010435 0 0 0 -1.77425,3.20186 l -1.86372,12.17004 -0.0708,1.44998 c 0.18637,2.12836 1.57297,3.23914 4.00698,3.23914 h 12.08059 c 2.98194,0 4.81584,-1.59535 5.27059,-4.61083 l 1.86371,-12.17006 a 4.0442596,4.0442596 0 0 0 -0.83494,-3.29505 3.7945219,3.7945219 0 0 0 -3.10122,-1.39405 z m -1.38661,5.28177 c -0.082,0.52555 -1.60279,10.54116 -1.66616,10.94745 h -10.83936 c 0.082,-0.53302 1.60279,-10.54863 1.66616,-10.94745 z m 29.07394,-5.28177 h -20.98914 l -0.8014,5.28177 h 8.03633 l -2.46382,16.20685 h 5.21839 c 0,0 2.42656,-15.8043 2.47129,-16.20685 h 8.02515 l 0.79766,-5.26314 z m 3.19068,0 -3.2615,21.46999 h 5.22213 l 3.26523,-21.46999 z m 24.60475,0 h -12.08059 a 4.9984812,4.9984812 0 0 0 -3.50006,1.40897 5.4159531,5.4159531 0 0 0 -1.77798,3.20186 l -1.86371,12.17004 -0.0745,1.44998 c 0.18637,2.12836 1.5767,3.23914 4.01071,3.23914 h 12.09177 c 2.98195,0 4.81585,-1.59535 5.27431,-4.61083 l 1.86372,-12.17006 a 4.047987,4.047987 0 0 0 -0.83867,-3.29505 3.7982492,3.7982492 0 0 0 -3.10495,-1.39405 z m -1.37914,5.28177 c -0.0783,0.52555 -1.6028,10.54116 -1.66244,10.94745 h -10.85427 c 0.0857,-0.53302 1.60652,-10.54863 1.66616,-10.94745 z M 20.206388,231.39802 H 7.4548566 c -2.1432714,0.2721 -3.5820587,1.32696 -4.3163621,3.21677 l -2.79184368,18.2644 H 5.5650502 c 0,0 2.400464,-15.78566 2.46383,-16.20686 H 18.838422 c -0.08946,0.56283 -2.46383,16.20686 -2.46383,16.20686 h 5.218399 l 2.553288,-16.77343 0.09691,-1.40151 c -0.182644,-2.16937 -1.58043,-3.30623 -4.036805,-3.30623 z m 171.588432,0 h -20.82887 c -2.10973,0.22364 -3.54479,1.26732 -4.28654,3.13103 l -2.79185,18.33896 h 5.2184 c 0,0 2.40046,-15.78567 2.46756,-16.20687 h 6.85101 l -2.46383,16.20687 h 5.2184 c 0,0 2.39674,-15.78567 2.46383,-16.20687 h 6.76528 l -2.46383,16.20687 h 5.26686 l 2.55329,-16.77344 0.0634,-1.42014 c -0.17519,-2.147 -1.57297,-3.27641 -4.03307,-3.27641 z m -39.39147,0 h -5.26686 l -2.7732,18.22339 c 0.18638,1.95317 1.32324,3.00804 3.35469,3.20559 l 13.41874,0.041 0.8014,-5.2594 H 149.9358 c 0.0895,-0.5703 2.46755,-16.21058 2.46755,-16.21058 z m 143.12579,0 H 282.7627 c -2.13954,0.2721 -3.57833,1.32696 -4.31264,3.21677 l -2.79556,18.2644 h 5.21839 c 0,0 2.41164,-15.79685 2.47128,-16.1994 h 10.80956 l -2.46384,16.20685 h 5.21839 l 2.5533,-16.77342 0.0969,-1.40152 c -0.17892,-2.17682 -1.57299,-3.31368 -4.02936,-3.31368 z M 38.947897,247.6086 h -8.263708 c 0.07828,-0.53302 1.602794,-10.54862 1.662433,-10.94746 h 10.854271 c -0.05591,0.35411 -1.960628,13.10565 -2.437739,16.23669 h 5.371224 l 3.224225,-21.49981 H 32.495719 a 4.9984812,4.9984812 0 0 0 -3.500055,1.40897 5.4196806,5.4196806 0 0 0 -1.785438,3.20186 l -1.863715,12.17004 -0.07455,1.44998 c 0.190099,2.12836 1.576702,3.23914 4.010712,3.23914 h 8.848916 z m 94.907773,0 h -8.26743 c 0.082,-0.53302 1.60278,-10.54862 1.66616,-10.94746 h 10.85054 c -0.0559,0.35411 -1.96063,13.10565 -2.43401,16.23669 h 5.3675 l 3.21304,-21.49981 h -16.85171 a 4.9910263,4.9910263 0 0 0 -3.49632,1.40897 5.4196806,5.4196806 0 0 0 -1.77426,3.20186 l -1.86371,12.17004 -0.0708,1.44998 c 0.18636,2.12836 1.57297,3.23914 4.00698,3.23914 h 8.86755 z"/></svg>