<svg version="1.1" id="Layer_1" xmlns="http://www.w3.org/2000/svg" xmlns:xlink="http://www.w3.org/1999/xlink" x="0px" y="0px"
	 width="100%" viewBox="0 0 220 128" enable-background="new 0 0 220 128" xml:space="preserve">
<path fill="#143433" opacity="1.000000" stroke="none" 
	d="
M147.000000,129.000000 
	C98.000015,129.000000 49.500023,129.000000 1.000026,129.000000 
	C1.000017,86.333359 1.000017,43.666710 1.000009,1.000049 
	C74.333290,1.000033 147.666580,1.000033 220.999908,1.000016 
	C220.999939,43.666615 220.999939,86.333229 220.999969,128.999924 
	C196.500000,129.000000 172.000000,129.000000 147.000000,129.000000 
M25.763428,57.733265 
	C25.919485,58.200481 26.075542,58.667694 26.003317,59.011528 
	C26.003317,59.011528 25.782604,58.875061 25.246986,58.867001 
	C25.170197,59.578239 25.093407,60.289482 24.992876,61.733845 
	C25.105726,62.200161 25.218576,62.666473 25.118124,63.917645 
	C25.015886,65.267609 24.913649,66.617569 24.327757,68.050911 
	C24.105455,68.294006 23.919769,68.562439 23.210117,69.028297 
	C23.159101,70.019333 23.108088,71.010376 23.027264,72.736305 
	C23.135448,73.203583 23.243633,73.670860 23.146587,74.882637 
	C23.136145,75.901100 23.125702,76.919571 23.231823,78.700653 
	C26.003323,78.908096 28.803755,78.932129 31.539888,79.363762 
	C36.249283,80.106682 38.000526,77.773720 38.657150,73.510231 
	C39.890896,65.499413 41.449543,57.539150 42.742893,49.536819 
	C43.529026,44.672806 44.071407,39.769402 44.946415,34.090618 
	C46.268124,33.060596 47.566784,31.174387 48.915253,31.138079 
	C58.393738,30.882866 67.883736,30.933626 77.366669,31.090702 
	C78.858131,31.115408 80.332458,32.173775 81.584663,33.312977 
	C81.982254,33.961029 82.379852,34.609077 82.659035,35.739853 
	C82.620094,36.075089 82.654678,36.402557 82.165596,37.065563 
	C82.103363,38.128620 82.041130,39.191673 81.608932,41.020714 
	C81.354668,43.282753 81.100410,45.544792 80.253998,48.145969 
	C80.168350,49.182503 80.082703,50.219032 79.684471,51.965729 
	C79.547508,52.989208 79.410545,54.012688 78.813232,55.641411 
	C77.645523,62.802700 76.477814,69.963989 75.341591,77.908241 
	C79.529968,78.201744 83.718338,78.495255 88.488976,78.981651 
	C89.003372,78.661758 89.517769,78.341866 90.638306,77.940475 
	C90.725464,76.957962 90.812614,75.975456 90.950722,74.201836 
	C90.871727,73.429626 90.792725,72.657425 90.889946,71.125961 
	C90.976051,70.091774 91.062157,69.057579 91.655304,67.748123 
	C91.873535,67.215218 92.091759,66.682304 92.864433,65.966743 
	C92.910194,64.977699 92.955948,63.988659 93.007072,62.268555 
	C92.896446,61.803806 92.785820,61.339058 92.880539,60.086491 
	C92.975502,58.733707 93.070473,57.380924 93.658272,55.921600 
	C93.860222,55.653042 94.062172,55.384483 94.869133,54.921154 
	C94.918694,53.614552 94.968246,52.307949 94.999313,50.283573 
	C94.902328,49.821693 94.805344,49.359818 94.932053,48.306015 
	C95.039932,47.899395 95.147804,47.492775 95.902245,46.881207 
	C96.274460,44.587357 96.646667,42.293503 97.011597,39.274109 
	C96.902184,38.813877 96.792770,38.353642 96.879051,37.202347 
	C97.020714,36.501556 97.162369,35.800762 97.949043,34.904755 
	C97.733757,33.236549 97.518471,31.568348 97.088776,29.226408 
	C96.681046,28.174179 96.273315,27.121950 95.954338,25.401091 
	C95.312897,24.585903 94.671463,23.770716 93.735901,22.349840 
	C90.851585,20.499708 87.967270,18.649578 84.786346,16.085648 
	C83.704582,15.757587 82.624031,15.148563 81.540871,15.143896 
	C66.877075,15.080709 52.212566,15.059476 37.549477,15.179284 
	C36.345848,15.189119 35.151215,16.299702 33.541985,17.473238 
	C33.271164,18.613245 33.000347,19.753250 32.091934,21.069336 
	C31.737532,23.046785 31.383129,25.024233 30.991255,27.733829 
	C31.102741,28.198853 31.214228,28.663877 31.127872,29.809586 
	C30.994156,30.504549 30.860441,31.199514 30.097239,32.080391 
	C29.751104,34.054626 29.404970,36.028862 28.996843,38.789589 
	C29.076349,39.559731 29.155855,40.329876 29.055532,41.697018 
	C28.958351,42.100224 28.861170,42.503426 28.140842,43.112762 
	C27.785357,45.073334 27.429873,47.033905 26.984858,49.788803 
	C27.082785,50.563511 27.180710,51.338215 27.119928,52.805084 
	C26.987900,53.500401 26.855871,54.195721 26.206333,54.938492 
	C26.077744,55.615662 25.949154,56.292835 25.763428,57.733265 
M187.671661,109.951424 
	C188.107498,109.291824 188.543350,108.632217 189.097321,107.541870 
	C189.097321,107.541870 189.318649,107.153908 189.981339,106.993965 
	C191.363098,104.999886 193.288269,103.005447 189.592285,100.534615 
	C188.633102,99.813148 187.673935,99.091682 186.861664,97.736435 
	C186.588364,97.417793 186.315048,97.099159 186.103882,96.265091 
	C186.097244,95.921204 186.090622,95.577324 186.897217,95.123444 
	C188.264206,95.078484 189.631180,95.033531 191.446793,95.409782 
	C192.231873,94.116043 193.895905,92.540619 193.593033,91.595558 
	C193.154556,90.227425 191.360001,88.466225 190.026169,88.360672 
	C185.102539,87.971046 180.123123,88.046928 175.182175,88.295441 
	C174.043488,88.352715 172.974228,89.790337 171.393433,90.793404 
	C171.226913,90.841400 171.060410,90.889404 170.089401,90.896362 
	C167.781113,90.561592 165.472839,90.226822 162.264633,89.661552 
	C156.176178,89.676506 150.087723,89.691467 143.569244,89.309311 
	C142.713333,89.531250 141.857407,89.753197 140.104568,89.698112 
	C135.395447,89.852684 130.686325,90.007256 125.298309,89.982521 
	C124.601341,89.933693 123.904373,89.884857 122.837860,89.333366 
	C120.069763,89.448143 117.301666,89.562927 113.744377,89.844955 
	C109.636932,90.010048 105.529488,90.175140 100.623764,90.079651 
	C97.935699,89.459648 95.239662,88.289383 92.561150,88.328232 
	C85.916481,88.424599 79.279831,89.073181 72.012901,89.533081 
	C71.203987,90.258926 70.395073,90.984779 69.266685,92.211563 
	C69.115349,92.784103 68.964012,93.356644 68.159279,94.009979 
	C67.102295,95.095772 66.045303,96.181557 64.094711,97.334427 
	C61.140869,97.205254 58.187023,97.076080 55.107517,96.129997 
	C55.065922,94.756516 55.024326,93.383034 55.260151,91.330544 
	C54.877716,90.727303 54.495277,90.124054 53.855015,88.968666 
	C51.857506,89.197197 49.859993,89.425735 47.355667,89.981773 
	C47.293411,90.173035 47.231155,90.364304 46.407066,90.203972 
	C43.277672,90.110168 40.147507,90.036514 37.019066,89.917671 
	C32.705029,89.753807 28.368786,89.464340 24.305140,93.072571 
	C23.895796,94.076820 23.486452,95.081078 23.082853,96.813866 
	C23.058437,97.541893 23.034021,98.269913 22.610252,99.382812 
	C23.129910,99.885689 23.649567,100.388557 24.609802,101.054993 
	C24.889357,101.230865 25.071798,101.478333 24.759678,102.419098 
	C23.642677,104.097282 22.525677,105.775467 21.318542,108.166405 
	C22.213444,109.093224 23.108347,110.020042 24.919436,111.129951 
	C29.611763,111.067879 34.304089,111.005806 39.652550,111.122643 
	C40.104828,111.094315 40.557102,111.065979 41.395985,111.471100 
	C42.274845,110.690865 43.153706,109.910629 44.296684,108.628029 
	C44.729328,108.016037 45.161972,107.404037 46.257893,106.870163 
	C46.511826,105.914299 46.765762,104.958427 46.941277,103.338966 
	C46.952084,102.893967 46.962891,102.448967 47.591141,101.896332 
	C48.056679,101.287308 48.522217,100.678284 49.413368,100.463905 
	C49.924252,100.665741 50.435131,100.867577 51.352341,101.649574 
	C53.167007,102.145714 54.981670,102.641846 56.874290,103.938843 
	C57.014400,104.992958 57.154510,106.047073 57.063854,107.693398 
	C56.949642,108.100426 56.835430,108.507462 56.115551,108.929108 
	C56.385479,109.632126 56.655403,110.335152 57.358398,111.651398 
	C62.496479,111.747597 62.956245,111.090782 63.373066,103.468605 
	C64.841179,103.245636 66.309288,103.022667 68.430634,103.109955 
	C69.728691,102.293510 71.026741,101.477058 72.922874,100.452240 
	C73.550323,100.417030 74.177780,100.381821 75.080978,100.982559 
	C77.023758,101.705376 78.966545,102.428185 80.673935,103.851639 
	C78.849335,104.188354 76.895882,104.230133 75.240196,104.953476 
	C73.872520,105.551010 72.856888,106.954330 71.600746,108.756348 
	C71.704796,109.239372 71.808846,109.722404 72.126740,110.649277 
	C72.381996,110.888435 72.684258,110.997993 73.526321,111.110680 
	C73.686920,111.054565 73.847519,110.998444 74.926140,111.128105 
	C80.285782,111.094398 85.645416,111.060692 91.396591,111.447273 
	C92.292427,110.671501 93.188255,109.895729 94.020073,109.058594 
	C94.020073,109.058594 94.107834,109.071350 94.839081,109.015617 
	C99.473511,104.952911 99.094894,100.421516 93.961128,97.567986 
	C92.892921,96.974236 92.039528,95.994019 91.927353,95.106216 
	C94.156143,94.961983 96.384926,94.817749 99.441002,94.927330 
	C100.302116,94.945877 101.163231,94.964432 102.784264,95.151001 
	C103.819420,95.200142 104.854584,95.249283 105.988838,96.058594 
	C106.350029,97.708893 106.711227,99.359200 106.867203,101.629601 
	C106.808052,102.060745 106.748901,102.491898 106.194885,103.247414 
	C105.586739,104.912376 104.717430,106.536140 104.446419,108.254272 
	C104.192871,109.861664 103.902802,112.243469 107.659592,111.096252 
	C108.110161,111.091270 108.560730,111.086288 109.488441,111.483482 
	C110.286346,110.656555 111.595604,109.936745 111.795097,108.984459 
	C112.740822,104.470016 113.383751,99.892143 114.946205,95.104057 
	C116.627243,94.986870 118.308289,94.869690 120.579811,95.317238 
	C120.611794,97.168579 120.643768,99.019913 120.026688,101.105095 
	C119.708153,103.739708 119.389618,106.374329 119.056496,109.848724 
	C120.565338,110.251221 122.063805,110.947159 123.584969,111.000916 
	C128.055435,111.158890 132.534897,111.061852 137.560852,111.532173 
	C138.752792,111.644691 139.944717,111.757217 141.884323,111.928818 
	C142.847656,111.245903 143.811005,110.562981 144.940445,109.978172 
	C144.940445,109.978172 145.111557,110.067261 145.687988,110.007339 
	C147.148514,110.321098 148.609039,110.634857 150.881744,111.041893 
	C154.112930,111.754372 155.321426,110.098671 156.196259,107.081917 
	C157.219177,107.063461 158.242096,107.045013 159.328461,107.792732 
	C158.800446,110.858650 160.265091,111.435951 163.645279,110.860497 
	C164.464172,110.831863 165.283081,110.803230 167.011765,110.938660 
	C172.641479,110.883110 178.271194,110.827560 184.531937,111.028534 
	C185.360336,110.690544 186.188751,110.352554 187.671661,109.951424 
M103.019333,33.775105 
	C103.102982,34.218708 103.186630,34.662315 103.061958,35.787025 
	C102.938591,36.487007 102.815224,37.186993 102.060211,38.072594 
	C101.698723,40.048073 101.337227,42.023548 100.977982,44.736042 
	C101.102982,45.201679 101.227989,45.667316 101.148170,46.811993 
	C101.005661,47.505032 100.863152,48.198067 100.083961,49.066402 
	C99.739304,51.044571 99.394653,53.022739 98.982162,55.729336 
	C99.085167,56.194622 99.188171,56.659908 99.114342,57.867390 
	C98.969734,58.872013 98.825134,59.876633 98.039162,61.079189 
	C98.267532,62.754784 98.495911,64.430374 98.953743,66.828041 
	C100.280426,72.045273 103.198959,75.868301 108.644699,78.308235 
	C109.471733,78.442245 110.298767,78.576256 112.030121,78.899292 
	C125.307137,78.818794 138.584152,78.738304 152.454666,78.965973 
	C153.173599,78.597488 153.892532,78.229004 155.288330,77.710419 
	C156.150497,77.380646 157.012680,77.050873 158.569382,76.849236 
	C161.030823,74.917511 163.789001,73.262321 165.896500,71.000778 
	C171.591949,64.889008 173.193665,57.384174 170.299042,49.763515 
	C167.421951,42.189053 160.829391,39.705418 152.924576,40.043095 
	C146.956268,40.298046 140.966599,40.017895 134.990799,40.159676 
	C133.644852,40.191608 131.287399,40.779858 131.149048,41.465714 
	C130.293472,45.707329 129.939056,50.050037 129.465164,54.533867 
	C129.465164,54.533867 129.639618,54.581757 130.111511,55.106525 
	C138.680817,55.816883 147.250107,56.527241 156.008209,57.595779 
	C156.008209,57.595779 156.307785,57.868172 155.962418,58.602943 
	C155.978790,59.404266 155.995163,60.205585 155.629761,61.299385 
	C155.439178,61.561699 155.209351,61.783318 154.101685,61.958099 
	C142.016693,62.295177 129.932251,62.720413 117.845627,62.795879 
	C116.915237,62.801685 114.977203,60.152596 115.187271,59.060680 
	C116.923409,50.036648 119.056084,41.088905 121.634750,31.495079 
	C123.276848,31.326937 124.918739,31.015306 126.561073,31.012926 
	C142.375458,30.990026 158.189896,31.019207 174.456299,31.440788 
	C178.956528,29.307673 178.022034,25.658533 177.045959,21.366865 
	C177.128860,20.947954 177.211761,20.529043 177.941788,19.885876 
	C180.034454,15.995131 177.659485,15.120417 174.535141,15.109646 
	C158.412567,15.054065 142.289490,15.052729 126.167336,15.152398 
	C125.068390,15.159190 123.975517,16.147446 122.265129,16.866220 
	C121.838470,16.875528 121.411819,16.884836 120.504951,16.442352 
	C113.759102,17.263981 106.742821,23.056171 105.077660,29.574080 
	C105.077660,29.574080 104.864388,29.940878 104.198555,30.088697 
	C103.833176,31.088356 103.467789,32.088017 103.019333,33.775105 
M195.641251,40.572670 
	C196.578125,35.843460 197.452621,31.100855 198.464722,26.387798 
	C200.659058,16.169353 200.546310,16.234884 190.227097,15.975406 
	C185.998337,15.869073 184.153793,17.371048 183.514999,21.330584 
	C182.350204,28.550415 180.982834,35.737350 179.732437,42.943634 
	C177.692871,54.698013 175.679337,66.456909 173.482239,79.216141 
	C178.422775,79.216141 182.830673,79.355026 187.213394,79.084969 
	C187.980148,79.037727 189.085556,77.353531 189.282455,76.286545 
	C191.424942,64.677200 193.417435,53.040188 195.641251,40.572670 
z"/>
<path fill="#F9FAFA" opacity="1.000000" stroke="none" 
	d="
M156.307785,57.868172 
	C156.307785,57.868172 156.008209,57.595779 155.909576,57.039146 
	C154.614182,55.742348 153.425293,54.378922 152.219391,54.363701 
	C144.694916,54.268703 137.166641,54.475174 129.639618,54.581757 
	C129.639618,54.581757 129.465164,54.533867 129.606598,54.046139 
	C130.389481,50.987305 131.412582,48.440208 131.576218,45.839043 
	C131.782608,42.558193 133.207169,41.659939 136.270294,41.735256 
	C143.061890,41.902241 149.863266,41.685863 156.653778,41.873844 
	C158.542542,41.926128 160.600555,42.501564 162.251205,43.425835 
	C171.922623,48.841335 172.875107,61.038944 164.407776,70.191452 
	C162.318527,72.449776 160.057114,74.548828 157.874847,76.721100 
	C157.012680,77.050873 156.150497,77.380646 154.664398,77.572937 
	C153.314026,77.842911 152.587601,78.250366 151.861160,78.657814 
	C138.584152,78.738304 125.307137,78.818794 111.462807,78.479637 
	C110.076683,77.925995 109.257866,77.792007 108.439056,77.658020 
	C103.198959,75.868301 100.280426,72.045273 98.982819,66.046791 
	C98.901443,63.804111 98.790993,62.342686 98.680542,60.881256 
	C98.825134,59.876633 98.969734,58.872013 99.519653,57.406479 
	C100.275688,54.964573 100.626411,52.983574 100.993790,50.642399 
	C100.913841,49.818516 100.817245,49.354809 100.720642,48.891106 
	C100.863152,48.198067 101.005661,47.505032 101.511749,46.449539 
	C101.947701,45.396420 102.020081,44.705757 102.137146,43.714058 
	C102.302055,43.025867 102.422279,42.638710 102.767548,42.154472 
	C102.995804,41.371487 102.999023,40.685585 103.010468,39.636147 
	C102.909752,38.810734 102.800804,38.348854 102.691856,37.886974 
	C102.815224,37.186993 102.938591,36.487007 103.488312,35.351570 
	C104.229195,33.904545 104.543724,32.892979 104.927307,31.556030 
	C104.952377,30.800726 104.908386,30.370802 104.864388,29.940878 
	C104.864388,29.940878 105.077660,29.574080 105.411011,29.257454 
	C109.390060,23.110338 114.903152,19.642361 120.985161,16.894144 
	C121.411819,16.884836 121.838470,16.875528 123.028229,16.922369 
	C139.909149,17.000191 156.026993,17.036787 172.144791,17.027323 
	C174.540451,17.025917 176.922455,16.830200 177.294647,20.110130 
	C177.211761,20.529043 177.128860,20.947954 176.834778,21.961824 
	C175.750504,25.382351 174.877411,28.207918 174.004318,31.033484 
	C158.189896,31.019207 142.375458,30.990026 126.561073,31.012926 
	C124.918739,31.015306 123.276848,31.326937 120.996185,31.823521 
	C119.300659,33.378075 117.589577,34.465557 117.295456,35.853352 
	C115.679222,43.479225 114.230934,51.152229 113.093987,58.863461 
	C112.491936,62.946884 114.808334,65.042732 118.956367,65.038559 
	C129.103317,65.028336 139.254715,65.186554 149.393219,64.893387 
	C151.268906,64.839142 153.092606,62.986721 154.940292,61.964241 
	C155.209351,61.783318 155.439178,61.561699 156.130646,61.161758 
	C156.523621,59.972149 156.415695,58.920158 156.307785,57.868172 
z"/>
<path fill="#FBFCFC" opacity="1.000000" stroke="none" 
	d="
M95.255684,47.086155 
	C95.147804,47.492775 95.039932,47.899395 94.527077,48.652767 
	C93.805626,49.677032 93.489151,50.354546 93.072754,51.363136 
	C93.037033,53.138859 93.101234,54.583500 93.165436,56.028141 
	C93.070473,57.380924 92.975502,58.733707 92.451546,60.577572 
	C91.731117,63.386898 91.439690,65.705147 91.148254,68.023392 
	C91.062157,69.057579 90.976051,70.091774 90.477753,71.608147 
	C89.345940,74.323143 88.626320,76.555946 87.906708,78.788757 
	C83.718338,78.495255 79.529968,78.201744 75.667755,77.399750 
	C77.087151,69.606232 78.180374,62.321201 79.273590,55.036167 
	C79.410545,54.012688 79.547508,52.989208 80.141052,51.464798 
	C80.680473,49.911522 80.763313,48.859177 80.846146,47.806828 
	C81.100410,45.544792 81.354668,43.282753 82.100647,40.484608 
	C82.649170,38.873089 82.705978,37.797676 82.762794,36.722263 
	C82.654678,36.402557 82.620094,36.075089 82.890739,35.212456 
	C82.686531,34.041435 82.250626,33.397816 81.814713,32.754196 
	C80.332458,32.173775 78.858131,31.115408 77.366669,31.090702 
	C67.883736,30.933626 58.393738,30.882866 48.915253,31.138079 
	C47.566784,31.174387 46.268124,33.060596 44.494358,34.609058 
	C42.077579,45.255077 39.562908,55.314022 38.288174,65.527718 
	C36.715855,78.125725 36.773266,78.525185 24.107641,77.948486 
	C23.777374,77.933449 23.446075,77.941010 23.115259,77.938034 
	C23.125702,76.919571 23.136145,75.901100 23.572453,74.424850 
	C24.269348,71.967216 24.540380,69.967369 24.811411,67.967529 
	C24.913649,66.617569 25.015886,65.267609 25.483688,63.505444 
	C25.950380,62.403366 26.051506,61.713490 26.191462,60.645935 
	C26.081062,59.803860 25.931833,59.339458 25.782604,58.875061 
	C25.782604,58.875061 26.003317,59.011528 26.380596,59.072258 
	C26.828638,58.421551 26.899405,57.710117 26.993673,56.638794 
	C26.919397,55.816288 26.821619,55.353661 26.723841,54.891037 
	C26.855871,54.195721 26.987900,53.500401 27.507917,52.355595 
	C28.267796,49.937099 28.639685,47.968098 29.029617,45.606171 
	C28.953100,44.444378 28.858543,43.675503 28.763988,42.906631 
	C28.861170,42.503426 28.958351,42.100224 29.430256,41.338348 
	C29.944046,39.999157 30.083113,39.018635 30.285267,37.654514 
	C30.474476,35.478771 30.600599,33.686626 30.726723,31.894478 
	C30.860441,31.199514 30.994156,30.504549 31.485771,29.449949 
	C31.951578,28.402328 32.059486,27.714342 32.223534,26.730818 
	C32.378239,26.046686 32.476807,25.658094 32.794434,25.163357 
	C32.990906,24.371443 32.968315,23.685673 32.970821,22.640724 
	C32.907120,21.818781 32.818325,21.356018 32.729530,20.893255 
	C33.000347,19.753250 33.271164,18.613245 34.209656,17.287663 
	C51.612537,17.001209 68.347748,16.900328 85.082954,16.799446 
	C87.967270,18.649578 90.851585,20.499708 93.831291,22.995735 
	C94.572983,24.450996 95.219276,25.260359 95.865585,26.069721 
	C96.273315,27.121950 96.681046,28.174179 97.051064,29.979870 
	C97.110237,32.188877 97.207130,33.644421 97.304024,35.099968 
	C97.162369,35.800762 97.020714,36.501556 96.466309,37.641495 
	C95.700462,40.053696 95.347359,42.026741 94.996109,44.391819 
	C95.083885,45.551285 95.169785,46.318718 95.255684,47.086155 
z"/>
<path fill="#ABB9BA" opacity="1.000000" stroke="none" 
	d="
M195.546021,40.991692 
	C193.417435,53.040188 191.424942,64.677200 189.282455,76.286545 
	C189.085556,77.353531 187.980148,79.037727 187.213394,79.084969 
	C182.830673,79.355026 178.422775,79.216141 173.482239,79.216141 
	C175.679337,66.456909 177.692871,54.698013 179.732437,42.943634 
	C180.982834,35.737350 182.350204,28.550415 183.514999,21.330584 
	C184.153793,17.371048 185.998337,15.869073 190.227097,15.975406 
	C200.546310,16.234884 200.659058,16.169353 198.464722,26.387798 
	C197.452621,31.100855 196.578125,35.843460 195.546021,40.991692 
M192.366211,47.924927 
	C194.212051,38.102905 196.057877,28.280884 197.980820,18.048544 
	C195.783249,17.946192 194.125961,18.012245 192.516144,17.766790 
	C187.940292,17.069094 185.802200,18.594479 185.032715,23.537502 
	C182.995972,36.621361 180.282074,49.598557 177.952438,62.638710 
	C177.072296,67.565277 176.507355,72.548164 175.716293,78.081932 
	C179.330765,78.081932 182.016373,78.376740 184.585037,77.956596 
	C185.854599,77.748940 187.724106,76.375443 187.930862,75.269363 
	C189.573898,66.479965 190.882538,57.628044 192.366211,47.924927 
z"/>
<path fill="#E9EFEF" opacity="1.000000" stroke="none" 
	d="
M123.207405,89.836021 
	C123.904373,89.884857 124.601341,89.933693 125.777664,90.508942 
	C131.115326,91.387543 135.973633,91.739723 140.845032,92.484192 
	C139.568237,93.510719 138.322220,94.554001 136.979721,94.698029 
	C133.711777,95.048630 130.399033,94.981979 126.770386,95.093674 
	C126.627319,96.066017 126.818214,97.028053 127.455017,98.108322 
	C130.377457,98.263336 132.894135,98.050110 135.314148,98.438721 
	C136.590164,98.643623 137.697540,99.898651 138.881058,100.679535 
	C137.636520,101.381561 136.435532,102.574142 135.138870,102.689308 
	C131.866119,102.979980 128.550293,102.785622 125.251724,102.785622 
	C125.186989,103.704453 125.122246,104.623276 125.057510,105.542107 
	C129.232986,107.087563 133.841003,106.082085 138.346405,106.628685 
	C137.970398,108.330666 137.490616,109.697662 137.010849,111.064667 
	C132.534897,111.061852 128.055435,111.158890 123.584969,111.000916 
	C122.063805,110.947159 120.565338,110.251221 119.412231,109.265854 
	C120.070557,106.079079 120.373154,103.475166 120.675751,100.871254 
	C120.643768,99.019913 120.611794,97.168579 120.289566,94.571518 
	C120.043350,92.900200 120.087372,91.974586 120.483032,90.993660 
	C121.625587,90.570900 122.416496,90.203461 123.207405,89.836021 
z"/>
<path fill="#E0E6E7" opacity="1.000000" stroke="none" 
	d="
M186.714752,98.370216 
	C187.673935,99.091682 188.633102,99.813148 189.678375,101.152061 
	C189.615845,103.564308 189.467255,105.359108 189.318649,107.153908 
	C189.318649,107.153908 189.097321,107.541870 188.726166,107.761551 
	C187.848312,108.295708 187.341583,108.610176 186.488007,108.950996 
	C185.447617,109.009735 184.754059,109.042122 183.884796,108.826660 
	C183.132812,108.018494 182.556549,107.458176 182.170685,106.555374 
	C182.963730,105.551765 183.566345,104.890648 184.168961,104.229523 
	C183.211182,103.804657 182.290970,103.173668 181.289047,102.991028 
	C177.209396,102.247337 173.104721,101.640999 168.972900,100.617950 
	C168.934845,98.133156 168.933121,96.014465 169.032593,93.611511 
	C169.720490,92.530632 170.307190,91.734016 170.893890,90.937401 
	C171.060410,90.889404 171.226913,90.841400 172.050171,90.751785 
	C177.986267,90.548103 183.264893,90.299179 188.545273,90.253807 
	C192.206131,90.222351 192.865784,92.017769 190.998169,94.988571 
	C189.631180,95.033531 188.264206,95.078484 186.040771,95.036575 
	C181.217697,94.949715 177.251083,94.949715 173.284470,94.949715 
	C173.237503,95.795616 173.190536,96.641525 173.143555,97.487427 
	C177.485611,97.826622 181.827682,98.165825 186.327011,98.556290 
	C186.484283,98.607559 186.714752,98.370216 186.714752,98.370216 
z"/>
<path fill="#F2F6F7" opacity="1.000000" stroke="none" 
	d="
M45.594620,106.792038 
	C45.161972,107.404037 44.729328,108.016037 43.838387,108.806763 
	C42.589851,109.669548 41.799618,110.353600 41.009380,111.037651 
	C40.557102,111.065979 40.104828,111.094315 39.371540,110.704575 
	C39.391815,109.225891 39.693100,108.165283 40.187351,106.852119 
	C40.502651,106.005585 40.624985,105.411598 40.711197,104.424187 
	C39.045040,103.611679 37.436970,103.017883 35.780430,102.809616 
	C32.252670,102.366096 28.699739,102.122765 25.157125,101.797394 
	C25.071798,101.478333 24.889357,101.230865 24.436680,100.655655 
	C24.200638,99.834496 24.137716,99.412666 24.320957,98.717705 
	C24.655876,97.229454 24.744633,96.014336 24.899532,94.500854 
	C24.981544,93.804291 24.997410,93.406090 25.013275,93.007889 
	C28.368786,89.464340 32.705029,89.753807 37.019066,89.917671 
	C40.147507,90.036514 43.277672,90.110168 46.677807,90.741005 
	C46.601971,92.468193 46.255390,93.658340 45.456139,94.945694 
	C40.781548,95.056389 36.553513,94.950012 32.341873,95.164925 
	C31.244221,95.220932 30.197670,96.278343 29.083595,97.136589 
	C29.786285,97.662018 30.533030,97.926682 31.645035,98.167328 
	C34.162067,98.193581 36.423698,97.843506 38.437595,98.396172 
	C40.913925,99.075745 43.183556,100.508530 45.386116,101.909363 
	C45.422375,102.792076 45.615040,103.381172 45.770538,104.326874 
	C45.687119,105.386337 45.640865,106.089188 45.594620,106.792038 
z"/>
<path fill="#E3E9EA" opacity="1.000000" stroke="none" 
	d="
M80.909325,103.150993 
	C78.966545,102.428185 77.023758,101.705376 75.025070,100.221588 
	C74.977707,97.401253 74.986252,95.341888 75.368553,93.145416 
	C82.621330,89.166649 90.072029,91.495125 97.265816,91.184319 
	C97.664124,91.167099 98.162125,93.457314 98.613716,94.673515 
	C96.384926,94.817749 94.156143,94.961983 91.063492,95.002609 
	C86.615395,94.898994 83.031151,94.898994 79.446907,94.898994 
	C79.411270,95.436142 79.375633,95.973289 79.339996,96.510445 
	C80.108582,97.029427 80.834564,97.901093 81.653870,98.000038 
	C83.941269,98.276283 86.304977,97.997078 88.571030,98.359428 
	C95.253151,99.427917 98.389778,101.545425 94.147743,108.099380 
	C93.996025,108.333786 94.115013,108.743393 94.107834,109.071350 
	C94.107834,109.071350 94.020073,109.058594 93.725647,109.104851 
	C92.654190,109.493736 91.877174,109.836365 90.924911,109.869247 
	C89.164909,108.700706 87.580170,107.841896 86.014252,106.660507 
	C86.008148,106.123955 85.983215,105.909981 86.267105,105.677933 
	C86.987442,105.635254 87.398949,105.610664 88.176346,105.728325 
	C89.304077,105.366127 90.065926,104.861679 90.827782,104.357239 
	C89.853767,103.959137 88.879745,103.561028 87.554649,103.132492 
	C86.499504,103.118950 85.795433,103.135849 84.689117,103.001740 
	C83.161018,102.950813 82.035172,103.050903 80.909325,103.150993 
z"/>
<path fill="#F8FBFC" opacity="1.000000" stroke="none" 
	d="
M162.850830,110.613152 
	C160.265091,111.435951 158.800446,110.858650 159.601608,107.194733 
	C160.578644,103.004227 161.282547,99.411720 162.278625,94.327942 
	C159.798065,95.463089 158.216919,96.186661 156.354340,97.014633 
	C155.487885,98.180923 154.902832,99.242805 154.294144,100.347626 
	C153.453140,99.836647 152.771072,99.422241 152.095062,98.685959 
	C152.239273,97.960045 152.377426,97.556000 152.756104,97.045822 
	C152.604965,96.335464 152.213303,95.731232 151.419952,95.065155 
	C145.873245,94.142883 147.306244,98.353783 146.215942,100.984337 
	C145.878662,101.885025 145.837830,102.649269 145.742493,103.524399 
	C145.687973,103.635284 145.440872,103.636894 145.287949,103.532188 
	C145.023087,103.466515 144.911133,103.505554 144.799194,103.544586 
	C144.904449,103.603661 145.006149,103.700836 145.115967,103.711136 
	C145.227158,103.721558 145.346390,103.646027 145.536118,103.947449 
	C145.554352,104.511444 145.498566,104.736145 145.184601,105.063385 
	C144.962784,105.778931 144.999161,106.391914 145.033173,107.390121 
	C145.057724,108.539314 145.084641,109.303284 145.111557,110.067261 
	C145.111557,110.067261 144.940445,109.978172 144.498413,109.915787 
	C143.101761,109.871506 142.147156,109.889610 141.094543,109.525452 
	C140.993317,108.095314 140.990097,107.047432 141.112762,105.673706 
	C141.332047,104.655807 141.425446,103.963760 141.780853,103.094284 
	C142.122406,102.150864 142.201965,101.384872 142.392395,100.217911 
	C142.911163,97.101677 143.319046,94.386406 144.213165,91.729935 
	C150.854401,91.794426 157.009399,91.800117 163.364563,91.853790 
	C163.564743,91.901764 163.920212,92.109467 163.973358,92.470474 
	C164.377472,95.581055 164.728439,98.330620 165.005417,101.485847 
	C164.959641,103.260841 164.987854,104.630180 164.710022,106.146378 
	C163.886261,107.733208 163.368546,109.173180 162.850830,110.613152 
z"/>
<path fill="#ACBABA" opacity="1.000000" stroke="none" 
	d="
M158.222107,76.785172 
	C160.057114,74.548828 162.318527,72.449776 164.407776,70.191452 
	C172.875107,61.038944 171.922623,48.841335 162.251205,43.425835 
	C160.600555,42.501564 158.542542,41.926128 156.653778,41.873844 
	C149.863266,41.685863 143.061890,41.902241 136.270294,41.735256 
	C133.207169,41.659939 131.782608,42.558193 131.576218,45.839043 
	C131.412582,48.440208 130.389481,50.987305 129.583099,53.958786 
	C129.939056,50.050037 130.293472,45.707329 131.149048,41.465714 
	C131.287399,40.779858 133.644852,40.191608 134.990799,40.159676 
	C140.966599,40.017895 146.956268,40.298046 152.924576,40.043095 
	C160.829391,39.705418 167.421951,42.189053 170.299042,49.763515 
	C173.193665,57.384174 171.591949,64.889008 165.896500,71.000778 
	C163.789001,73.262321 161.030823,74.917511 158.222107,76.785172 
z"/>
<path fill="#586F70" opacity="1.000000" stroke="none" 
	d="
M154.520996,61.961174 
	C153.092606,62.986721 151.268906,64.839142 149.393219,64.893387 
	C139.254715,65.186554 129.103317,65.028336 118.956367,65.038559 
	C114.808334,65.042732 112.491936,62.946884 113.093987,58.863461 
	C114.230934,51.152229 115.679222,43.479225 117.295456,35.853352 
	C117.589577,34.465557 119.300659,33.378075 120.713165,32.135010 
	C119.056084,41.088905 116.923409,50.036648 115.187271,59.060680 
	C114.977203,60.152596 116.915237,62.801685 117.845627,62.795879 
	C129.932251,62.720413 142.016693,62.295177 154.520996,61.961174 
z"/>
<path fill="#F2F7F8" opacity="1.000000" stroke="none" 
	d="
M120.131393,91.048981 
	C120.087372,91.974586 120.043350,92.900200 119.994324,94.289154 
	C118.308289,94.869690 116.627243,94.986870 114.148514,95.155151 
	C112.876472,96.104805 112.194008,96.953239 111.963440,97.910515 
	C110.910057,102.284081 109.983444,106.688179 109.011292,111.081314 
	C108.560730,111.086288 108.110161,111.091270 107.255302,110.645844 
	C106.797264,107.771301 106.743507,105.347168 106.689758,102.923042 
	C106.748901,102.491898 106.808052,102.060745 107.331345,101.158295 
	C107.279991,98.848442 109.870583,95.911392 105.889740,95.298431 
	C104.854584,95.249283 103.819420,95.200142 102.303398,94.723221 
	C101.689034,92.977036 101.555534,91.658638 101.422043,90.340240 
	C105.529488,90.175140 109.636932,90.010048 114.142410,90.072800 
	C116.404091,90.550095 118.267746,90.799538 120.131393,91.048981 
z"/>
<path fill="#F8FBFC" opacity="1.000000" stroke="none" 
	d="
M54.982731,92.009552 
	C55.024326,93.383034 55.065922,94.756516 54.929642,96.757530 
	C56.489971,100.688408 62.509499,101.210205 66.465393,98.216606 
	C67.464523,96.683685 68.138603,95.306435 68.812675,93.929184 
	C68.964012,93.356644 69.115349,92.784103 69.810257,92.097092 
	C70.530663,94.559608 70.707481,97.136597 70.575294,99.832092 
	C69.436661,100.900291 68.607025,101.849998 67.777397,102.799698 
	C66.309288,103.022667 64.841179,103.245636 62.748554,103.784851 
	C60.538048,106.031555 58.952053,107.962013 57.231354,109.630493 
	C56.971512,109.217171 56.846367,109.065834 56.721222,108.914490 
	C56.835430,108.507462 56.949642,108.100426 57.474468,107.341614 
	C59.649014,105.104721 60.337093,103.523697 56.796333,103.137985 
	C54.981670,102.641846 53.167007,102.145714 51.198723,100.907349 
	C51.037086,97.451210 51.029068,94.737312 51.012558,92.013451 
	C51.004070,92.003494 51.022308,92.020447 51.418659,92.028900 
	C52.870918,92.028076 53.926823,92.018814 54.982731,92.009552 
z"/>
<path fill="#576D6E" opacity="1.000000" stroke="none" 
	d="
M143.726929,91.671143 
	C143.319046,94.386406 142.911163,97.101677 142.131165,100.380859 
	C141.678970,101.720428 141.598907,102.496078 141.518845,103.271721 
	C141.425446,103.963760 141.332047,104.655807 140.654343,105.699265 
	C139.460907,106.131683 138.851776,106.212685 138.242645,106.293686 
	C133.841003,106.082085 129.232986,107.087563 125.057510,105.542107 
	C125.122246,104.623276 125.186989,103.704453 125.251724,102.785622 
	C128.550293,102.785622 131.866119,102.979980 135.138870,102.689308 
	C136.435532,102.574142 137.636520,101.381561 138.881058,100.679535 
	C137.697540,99.898651 136.590164,98.643623 135.314148,98.438721 
	C132.894135,98.050110 130.377457,98.263336 127.463196,97.744720 
	C127.051758,96.536385 127.078049,95.809875 127.104340,95.083374 
	C130.399033,94.981979 133.711777,95.048630 136.979721,94.698029 
	C138.322220,94.554001 139.568237,93.510719 140.916733,92.135513 
	C140.984039,90.921402 140.992767,90.448265 141.001495,89.975143 
	C141.857407,89.753197 142.713333,89.531250 143.758270,89.839386 
	C143.873825,90.803352 143.800369,91.237244 143.726929,91.671143 
z"/>
<path fill="#B1BEBF" opacity="1.000000" stroke="none" 
	d="
M23.173542,78.319344 
	C23.446075,77.941010 23.777374,77.933449 24.107641,77.948486 
	C36.773266,78.525185 36.715855,78.125725 38.288174,65.527718 
	C39.562908,55.314022 42.077579,45.255077 44.382797,35.005592 
	C44.071407,39.769402 43.529026,44.672806 42.742893,49.536819 
	C41.449543,57.539150 39.890896,65.499413 38.657150,73.510231 
	C38.000526,77.773720 36.249283,80.106682 31.539888,79.363762 
	C28.803755,78.932129 26.003323,78.908096 23.173542,78.319344 
z"/>
<path fill="#586F70" opacity="1.000000" stroke="none" 
	d="
M177.618225,19.998003 
	C176.922455,16.830200 174.540451,17.025917 172.144791,17.027323 
	C156.026993,17.036787 139.909149,17.000191 123.335579,16.828884 
	C123.975517,16.147446 125.068390,15.159190 126.167336,15.152398 
	C142.289490,15.052729 158.412567,15.054065 174.535141,15.109646 
	C177.659485,15.120417 180.034454,15.995131 177.618225,19.998003 
z"/>
<path fill="#597071" opacity="1.000000" stroke="none" 
	d="
M84.934647,16.442547 
	C68.347748,16.900328 51.612537,17.001209 34.414867,17.000458 
	C35.151215,16.299702 36.345848,15.189119 37.549477,15.179284 
	C52.212566,15.059476 66.877075,15.080709 81.540871,15.143896 
	C82.624031,15.148563 83.704582,15.757587 84.934647,16.442547 
z"/>
<path fill="#576D6E" opacity="1.000000" stroke="none" 
	d="
M101.022903,90.209946 
	C101.555534,91.658638 101.689034,92.977036 101.923439,94.639214 
	C101.163231,94.964432 100.302116,94.945877 99.027359,94.800423 
	C98.162125,93.457314 97.664124,91.167099 97.265816,91.184319 
	C90.072029,91.495125 82.621330,89.166649 75.295654,92.824829 
	C74.112648,91.594200 73.376297,90.547073 72.639954,89.499939 
	C79.279831,89.073181 85.916481,88.424599 92.561150,88.328232 
	C95.239662,88.289383 97.935699,89.459648 101.022903,90.209946 
z"/>
<path fill="#3B5354" opacity="1.000000" stroke="none" 
	d="
M29.127649,96.875824 
	C30.197670,96.278343 31.244221,95.220932 32.341873,95.164925 
	C36.553513,94.950012 40.781548,95.056389 45.871346,94.948456 
	C47.488743,96.592438 48.238251,98.330856 48.987755,100.069267 
	C48.522217,100.678284 48.056679,101.287308 47.039642,101.889847 
	C46.172939,101.794167 45.857731,101.704956 45.542526,101.615753 
	C43.183556,100.508530 40.913925,99.075745 38.437595,98.396172 
	C36.423698,97.843506 34.162067,98.193581 31.363739,97.836426 
	C30.187340,97.311630 29.657494,97.093727 29.127649,96.875824 
z"/>
<path fill="#516869" opacity="1.000000" stroke="none" 
	d="
M24.958401,102.108246 
	C28.699739,102.122765 32.252670,102.366096 35.780430,102.809616 
	C37.436970,103.017883 39.045040,103.611679 40.445297,104.481857 
	C39.714165,105.417526 39.212811,105.902107 38.269981,106.451492 
	C33.221302,106.703201 28.614098,106.890099 23.675785,107.021744 
	C22.699345,107.128876 22.054008,107.291260 21.408674,107.453644 
	C22.525677,105.775467 23.642677,104.097282 24.958401,102.108246 
z"/>
<path fill="#4C6364" opacity="1.000000" stroke="none" 
	d="
M145.442780,104.960838 
	C145.498566,104.736145 145.554352,104.511444 145.497452,103.942581 
	C145.384766,103.598412 145.440872,103.636894 145.440872,103.636894 
	C145.440872,103.636894 145.687973,103.635284 145.972015,103.355225 
	C146.341492,102.332741 146.426941,101.590309 146.512390,100.847885 
	C147.306244,98.353783 145.873245,94.142883 151.471863,95.422012 
	C152.122177,96.277786 152.318893,96.714867 152.515594,97.151947 
	C152.377426,97.556000 152.239273,97.960045 151.826843,98.973251 
	C151.058243,103.371147 150.563904,107.159882 150.069565,110.948616 
	C148.609039,110.634857 147.148514,110.321098 145.399780,110.037300 
	C145.084641,109.303284 145.057724,108.539314 145.235321,107.253632 
	C145.440811,106.141571 145.441803,105.551201 145.442780,104.960838 
z"/>
<path fill="#576D6E" opacity="1.000000" stroke="none" 
	d="
M94.473457,109.043488 
	C94.115013,108.743393 93.996025,108.333786 94.147743,108.099380 
	C98.389778,101.545425 95.253151,99.427917 88.571030,98.359428 
	C86.304977,97.997078 83.941269,98.276283 81.653870,98.000038 
	C80.834564,97.901093 80.108582,97.029427 79.339996,96.510445 
	C79.375633,95.973289 79.411270,95.436142 79.446907,94.898994 
	C83.031151,94.898994 86.615395,94.898994 90.643387,95.045448 
	C92.039528,95.994019 92.892921,96.974236 93.961128,97.567986 
	C99.094894,100.421516 99.473511,104.952911 94.473457,109.043488 
z"/>
<path fill="#FCFDFD" opacity="1.000000" stroke="none" 
	d="
M181.980270,106.897865 
	C182.556549,107.458176 183.132812,108.018494 183.812164,109.105270 
	C183.910461,110.011833 183.905685,110.391922 183.900909,110.772018 
	C178.271194,110.827560 172.641479,110.883110 166.617920,110.547722 
	C166.508057,109.159401 166.792053,108.162010 167.534485,107.110519 
	C172.655365,107.003563 177.317810,106.950714 181.980270,106.897865 
z"/>
<path fill="#FCFDFD" opacity="1.000000" stroke="none" 
	d="
M85.995422,106.983093 
	C87.580170,107.841896 89.164909,108.700706 90.878212,110.078682 
	C91.006767,110.597855 91.005058,111.026985 91.005058,111.026985 
	C85.645416,111.060692 80.285782,111.094398 74.464310,110.668922 
	C74.022278,109.237251 74.042076,108.264755 74.512245,107.213379 
	C78.640221,107.084030 82.317825,107.033562 85.995422,106.983093 
z"/>
<path fill="#FCFDFD" opacity="1.000000" stroke="none" 
	d="
M24.006893,107.076996 
	C28.614098,106.890099 33.221302,106.703201 38.568359,106.671326 
	C39.536934,106.919121 39.765659,107.011894 39.994385,107.104668 
	C39.693100,108.165283 39.391815,109.225891 39.043472,110.615128 
	C34.304089,111.005806 29.611763,111.067879 24.459682,110.651276 
	C24.002251,109.140724 24.004572,108.108864 24.006893,107.076996 
z"/>
<path fill="#C3CECF" opacity="1.000000" stroke="none" 
	d="
M150.475647,110.995255 
	C150.563904,107.159882 151.058243,103.371147 151.820801,99.295120 
	C152.771072,99.422241 153.453140,99.836647 154.294144,100.347626 
	C154.902832,99.242805 155.487885,98.180923 156.443527,97.409882 
	C156.353058,100.852592 155.892014,104.004456 155.430969,107.156326 
	C155.321426,110.098671 154.112930,111.754372 150.475647,110.995255 
z"/>
<path fill="#4C6364" opacity="1.000000" stroke="none" 
	d="
M155.813614,107.119125 
	C155.892014,104.004456 156.353058,100.852592 156.724945,97.305473 
	C158.216919,96.186661 159.798065,95.463089 162.278625,94.327942 
	C161.282547,99.411720 160.578644,103.004227 159.569885,106.811646 
	C158.242096,107.045013 157.219177,107.063461 155.813614,107.119125 
z"/>
<path fill="#ACBABA" opacity="1.000000" stroke="none" 
	d="
M129.875565,54.844143 
	C137.166641,54.475174 144.694916,54.268703 152.219391,54.363701 
	C153.425293,54.378922 154.614182,55.742348 155.815170,56.860058 
	C147.250107,56.527241 138.680817,55.816883 129.875565,54.844143 
z"/>
<path fill="#4C6364" opacity="1.000000" stroke="none" 
	d="
M191.222473,95.199173 
	C192.865784,92.017769 192.206131,90.222351 188.545273,90.253807 
	C183.264893,90.299179 177.986267,90.548103 172.289963,90.651443 
	C172.974228,89.790337 174.043488,88.352715 175.182175,88.295441 
	C180.123123,88.046928 185.102539,87.971046 190.026169,88.360672 
	C191.360001,88.466225 193.154556,90.227425 193.593033,91.595558 
	C193.895905,92.540619 192.231873,94.116043 191.222473,95.199173 
z"/>
<path fill="#B2BFC0" opacity="1.000000" stroke="none" 
	d="
M79.043411,55.338791 
	C78.180374,62.321201 77.087151,69.606232 75.652016,77.008270 
	C76.477814,69.963989 77.645523,62.802700 79.043411,55.338791 
z"/>
<path fill="#AAB7B8" opacity="1.000000" stroke="none" 
	d="
M144.213165,91.729935 
	C143.800369,91.237244 143.873825,90.803352 143.973267,90.037941 
	C150.087723,89.691467 156.176178,89.676506 162.710114,90.095840 
	C163.158539,90.955360 163.161453,91.380585 163.164383,91.805809 
	C157.009399,91.800117 150.854401,91.794426 144.213165,91.729935 
z"/>
<path fill="#586F70" opacity="1.000000" stroke="none" 
	d="
M109.249863,111.282394 
	C109.983444,106.688179 110.910057,102.284081 111.963440,97.910515 
	C112.194008,96.953239 112.876472,96.104805 113.742691,95.271561 
	C113.383751,99.892143 112.740822,104.470016 111.795097,108.984459 
	C111.595604,109.936745 110.286346,110.656555 109.249863,111.282394 
z"/>
<path fill="#586F70" opacity="1.000000" stroke="none" 
	d="
M120.745056,16.668247 
	C114.903152,19.642361 109.390060,23.110338 105.427414,29.045942 
	C106.742821,23.056171 113.759102,17.263981 120.745056,16.668247 
z"/>
<path fill="#657A7A" opacity="1.000000" stroke="none" 
	d="
M86.014252,106.660507 
	C82.317825,107.033562 78.640221,107.084030 74.195160,107.193642 
	C72.846878,107.502052 72.266068,107.751328 71.685257,108.000595 
	C72.856888,106.954330 73.872520,105.551010 75.240196,104.953476 
	C76.895882,104.230133 78.849335,104.188354 80.791626,103.501312 
	C82.035172,103.050903 83.161018,102.950813 84.725006,103.275177 
	C85.428185,104.365097 85.693230,105.030556 85.958282,105.696014 
	C85.983215,105.909981 86.008148,106.123955 86.014252,106.660507 
z"/>
<path fill="#4C6364" opacity="1.000000" stroke="none" 
	d="
M186.169739,98.505020 
	C181.827682,98.165825 177.485611,97.826622 173.143555,97.487427 
	C173.190536,96.641525 173.237503,95.795616 173.284470,94.949715 
	C177.251083,94.949715 181.217697,94.949715 185.634155,95.091576 
	C186.090622,95.577324 186.097244,95.921204 186.077637,96.956345 
	C186.090866,97.933418 186.130310,98.219223 186.169739,98.505020 
z"/>
<path fill="#BBC5C6" opacity="1.000000" stroke="none" 
	d="
M72.326431,89.516510 
	C73.376297,90.547073 74.112648,91.594200 74.921890,92.961929 
	C74.986252,95.341888 74.977707,97.401253 74.887192,99.903625 
	C74.177780,100.381821 73.550323,100.417030 72.252625,100.336334 
	C71.349686,100.051483 71.116989,99.882538 70.884300,99.713593 
	C70.707481,97.136597 70.530663,94.559608 69.970001,91.846619 
	C70.395073,90.984779 71.203987,90.258926 72.326431,89.516510 
z"/>
<path fill="#AAB7B8" opacity="1.000000" stroke="none" 
	d="
M66.140327,98.372276 
	C62.509499,101.210205 56.489971,100.688408 54.992470,97.165985 
	C58.187023,97.076080 61.140869,97.205254 64.708862,97.510391 
	C65.595444,97.914993 65.867889,98.143631 66.140327,98.372276 
z"/>
<path fill="#B2BFC0" opacity="1.000000" stroke="none" 
	d="
M140.553040,89.836624 
	C140.992767,90.448265 140.984039,90.921402 140.903625,91.743217 
	C135.973633,91.739723 131.115326,91.387543 126.117111,90.598595 
	C130.686325,90.007256 135.395447,89.852684 140.553040,89.836624 
z"/>
<path fill="#AAB7B8" opacity="1.000000" stroke="none" 
	d="
M49.200562,100.266586 
	C48.238251,98.330856 47.488743,96.592438 46.324020,94.851257 
	C46.255390,93.658340 46.601971,92.468193 47.058723,90.916809 
	C47.231155,90.364304 47.293411,90.173035 47.774101,90.218399 
	C49.135372,90.977821 50.078213,91.500610 51.021049,92.023407 
	C51.029068,94.737312 51.037086,97.451210 50.995560,100.617264 
	C50.435131,100.867577 49.924252,100.665741 49.200562,100.266586 
z"/>
<path fill="#586F70" opacity="1.000000" stroke="none" 
	d="
M174.230316,31.237137 
	C174.877411,28.207918 175.750504,25.382351 176.855408,22.283045 
	C178.022034,25.658533 178.956528,29.307673 174.230316,31.237137 
z"/>
<path fill="#BBC5C6" opacity="1.000000" stroke="none" 
	d="
M57.366055,109.892464 
	C58.952053,107.962013 60.538048,106.031555 62.448891,104.008133 
	C62.956245,111.090782 62.496479,111.747597 57.248669,111.057053 
	C57.214645,110.272629 57.290352,110.082550 57.366055,109.892464 
z"/>
<path fill="#586F70" opacity="1.000000" stroke="none" 
	d="
M106.442322,103.085228 
	C106.743507,105.347168 106.797264,107.771301 106.934853,110.535973 
	C103.902802,112.243469 104.192871,109.861664 104.446419,108.254272 
	C104.717430,106.536140 105.586739,104.912376 106.442322,103.085228 
z"/>
<path fill="#586F70" opacity="1.000000" stroke="none" 
	d="
M120.351219,100.988174 
	C120.373154,103.475166 120.070557,106.079079 119.419525,108.845963 
	C119.389618,106.374329 119.708153,103.739708 120.351219,100.988174 
z"/>
<path fill="#576D6E" opacity="1.000000" stroke="none" 
	d="
M120.483032,90.993668 
	C118.267746,90.799538 116.404091,90.550095 114.537003,89.989182 
	C117.301666,89.562927 120.069763,89.448143 123.022629,89.584694 
	C122.416496,90.203461 121.625587,90.570900 120.483032,90.993668 
z"/>
<path fill="#4C6364" opacity="1.000000" stroke="none" 
	d="
M163.364563,91.853790 
	C163.161453,91.380585 163.158539,90.955360 163.160080,90.211090 
	C165.472839,90.226822 167.781113,90.561592 170.491638,90.916885 
	C170.307190,91.734016 169.720490,92.530632 168.686462,93.655212 
	C166.799484,93.358604 165.359848,92.734039 163.920212,92.109467 
	C163.920212,92.109467 163.564743,91.901764 163.364563,91.853790 
z"/>
<path fill="#586F70" opacity="1.000000" stroke="none" 
	d="
M138.346405,106.628677 
	C138.851776,106.212685 139.460907,106.131683 140.528458,106.025116 
	C140.990097,107.047432 140.993317,108.095314 141.033661,109.849564 
	C141.092743,110.993874 141.114700,111.431801 141.136658,111.869736 
	C139.944717,111.757217 138.752792,111.644691 137.285858,111.298416 
	C137.490616,109.697662 137.970398,108.330666 138.346405,106.628677 
z"/>
<path fill="#B2BFC0" opacity="1.000000" stroke="none" 
	d="
M167.076050,107.164619 
	C166.792053,108.162010 166.508057,109.159401 166.163025,110.465683 
	C165.283081,110.803230 164.464172,110.831863 163.248047,110.736824 
	C163.368546,109.173180 163.886261,107.733208 165.004501,106.208038 
	C166.095352,106.470100 166.585693,106.817360 167.076050,107.164619 
z"/>
<path fill="#516869" opacity="1.000000" stroke="none" 
	d="
M51.012558,92.013451 
	C50.078213,91.500610 49.135372,90.977821 48.027512,90.054649 
	C49.859993,89.425735 51.857506,89.197197 53.634762,89.370979 
	C52.617111,90.522346 51.819714,91.271400 51.022308,92.020447 
	C51.022308,92.020447 51.004070,92.003494 51.012558,92.013451 
z"/>
<path fill="#516869" opacity="1.000000" stroke="none" 
	d="
M95.578964,46.983681 
	C95.169785,46.318718 95.083885,45.551285 95.226837,44.159935 
	C95.976753,42.357231 96.497810,41.178440 97.018875,39.999653 
	C96.646667,42.293503 96.274460,44.587357 95.578964,46.983681 
z"/>
<path fill="#B2BFC0" opacity="1.000000" stroke="none" 
	d="
M88.197845,78.885208 
	C88.626320,76.555946 89.345940,74.323143 90.389641,71.987778 
	C90.792725,72.657425 90.871727,73.429626 90.684334,74.825516 
	C90.289352,76.306786 90.160759,77.164375 90.032166,78.021973 
	C89.517769,78.341866 89.003372,78.661758 88.197845,78.885208 
z"/>
<path fill="#597071" opacity="1.000000" stroke="none" 
	d="
M30.411980,31.987434 
	C30.600599,33.686626 30.474476,35.478771 29.994776,37.633377 
	C29.447081,37.998257 29.252958,38.000675 29.058836,38.003098 
	C29.404970,36.028862 29.751104,34.054626 30.411980,31.987434 
z"/>
<path fill="#516869" opacity="1.000000" stroke="none" 
	d="
M66.465393,98.216606 
	C65.867889,98.143631 65.595444,97.914993 65.155663,97.476852 
	C66.045303,96.181557 67.102295,95.095772 68.485977,93.969582 
	C68.138603,95.306435 67.464523,96.683685 66.465393,98.216606 
z"/>
<path fill="#B2BFC0" opacity="1.000000" stroke="none" 
	d="
M91.401779,67.885757 
	C91.439690,65.705147 91.731117,63.386898 92.348877,60.971481 
	C92.785820,61.339058 92.896446,61.803806 92.767899,62.883659 
	C92.455811,64.382309 92.382896,65.265854 92.309982,66.149399 
	C92.091759,66.682304 91.873535,67.215218 91.401779,67.885757 
z"/>
<path fill="#586F70" opacity="1.000000" stroke="none" 
	d="
M102.376038,37.979782 
	C102.800804,38.348854 102.909752,38.810734 102.794945,39.864731 
	C102.561623,41.055080 102.552063,41.653316 102.542496,42.251549 
	C102.422279,42.638710 102.302055,43.025867 101.858139,43.697258 
	C101.348198,43.987335 101.161964,43.993179 100.975731,43.999027 
	C101.337227,42.023548 101.698723,40.048073 102.376038,37.979782 
z"/>
<path fill="#5F7476" opacity="1.000000" stroke="none" 
	d="
M189.649994,107.073936 
	C189.467255,105.359108 189.615845,103.564308 189.870911,101.391991 
	C193.288269,103.005447 191.363098,104.999886 189.649994,107.073936 
z"/>
<path fill="#F2F6F7" opacity="1.000000" stroke="none" 
	d="
M23.675787,107.021744 
	C24.004572,108.108864 24.002251,109.140724 24.001591,110.559723 
	C23.108347,110.020042 22.213444,109.093224 21.363607,107.810028 
	C22.054008,107.291260 22.699345,107.128876 23.675787,107.021744 
z"/>
<path fill="#576D6E" opacity="1.000000" stroke="none" 
	d="
M105.939285,95.678513 
	C109.870583,95.911392 107.279991,98.848442 107.433952,100.848244 
	C106.711227,99.359200 106.350029,97.708893 105.939285,95.678513 
z"/>
<path fill="#597071" opacity="1.000000" stroke="none" 
	d="
M32.575371,25.269503 
	C32.476807,25.658094 32.378239,26.046686 31.939125,26.712048 
	C31.408627,26.993105 31.218678,26.997393 31.028728,27.001682 
	C31.383129,25.024233 31.737532,23.046785 32.410728,20.981297 
	C32.818325,21.356018 32.907120,21.818781 32.750961,22.870781 
	C32.529125,24.063181 32.552246,24.666342 32.575371,25.269503 
z"/>
<path fill="#597071" opacity="1.000000" stroke="none" 
	d="
M28.452415,43.009697 
	C28.858543,43.675503 28.953100,44.444378 28.807610,45.813652 
	C28.069839,47.274197 27.572113,48.134335 27.074389,48.994476 
	C27.429873,47.033905 27.785357,45.073334 28.452415,43.009697 
z"/>
<path fill="#B1BEBF" opacity="1.000000" stroke="none" 
	d="
M24.569584,68.009216 
	C24.540380,69.967369 24.269348,71.967216 23.675068,74.052597 
	C23.243633,73.670860 23.135448,73.203583 23.270222,72.117279 
	C23.599020,70.617569 23.684860,69.736885 23.770702,68.856194 
	C23.919769,68.562439 24.105455,68.294006 24.569584,68.009216 
z"/>
<path fill="#BBC5C6" opacity="1.000000" stroke="none" 
	d="
M97.015236,39.636879 
	C96.497810,41.178440 95.976753,42.357231 95.224968,43.767906 
	C95.347359,42.026741 95.700462,40.053696 96.368469,37.987030 
	C96.792770,38.353642 96.902184,38.813877 97.015236,39.636879 
z"/>
<path fill="#ACBABA" opacity="1.000000" stroke="none" 
	d="
M100.977142,51.002579 
	C100.626411,52.983574 100.275688,54.964573 99.608070,57.035385 
	C99.188171,56.659908 99.085167,56.194622 99.252304,55.140713 
	C100.007347,53.368919 100.492249,52.185749 100.977142,51.002579 
z"/>
<path fill="#586F70" opacity="1.000000" stroke="none" 
	d="
M100.993790,50.642399 
	C100.492249,52.185749 100.007347,53.368919 99.286224,54.776497 
	C99.394653,53.022739 99.739304,51.044571 100.402298,48.978752 
	C100.817245,49.354809 100.913841,49.818516 100.993790,50.642399 
z"/>
<path fill="#B1BEBF" opacity="1.000000" stroke="none" 
	d="
M27.029623,49.391640 
	C27.572113,48.134335 28.069839,47.274197 28.789570,46.206573 
	C28.639685,47.968098 28.267796,49.937099 27.587273,52.009514 
	C27.180710,51.338215 27.082785,50.563511 27.029623,49.391640 
z"/>
<path fill="#516869" opacity="1.000000" stroke="none" 
	d="
M97.626534,35.002361 
	C97.207130,33.644421 97.110237,32.188877 97.158264,30.316738 
	C97.518471,31.568348 97.733757,33.236549 97.626534,35.002361 
z"/>
<path fill="#586F70" opacity="1.000000" stroke="none" 
	d="
M98.359848,60.980225 
	C98.790993,62.342686 98.901443,63.804111 98.868088,65.685760 
	C98.495911,64.430374 98.267532,62.754784 98.359848,60.980225 
z"/>
<path fill="#657A7A" opacity="1.000000" stroke="none" 
	d="
M70.575294,99.832092 
	C71.116989,99.882538 71.349686,100.051483 71.953583,100.440521 
	C71.026741,101.477058 69.728691,102.293510 68.104019,102.954826 
	C68.607025,101.849998 69.436661,100.900291 70.575294,99.832092 
z"/>
<path fill="#BBC5C6" opacity="1.000000" stroke="none" 
	d="
M56.835312,103.538414 
	C60.337093,103.523697 59.649014,105.104721 57.589851,107.045517 
	C57.154510,106.047073 57.014400,104.992958 56.835312,103.538414 
z"/>
<path fill="#C3CECF" opacity="1.000000" stroke="none" 
	d="
M141.510498,111.899277 
	C141.114700,111.431801 141.092743,110.993874 141.131653,110.231827 
	C142.147156,109.889610 143.101761,109.871506 144.415359,109.866730 
	C143.811005,110.562981 142.847656,111.245903 141.510498,111.899277 
z"/>
<path fill="#AAB7B8" opacity="1.000000" stroke="none" 
	d="
M51.418663,92.028900 
	C51.819714,91.271400 52.617111,90.522346 53.763676,89.647049 
	C54.495277,90.124054 54.877716,90.727303 55.121441,91.670044 
	C53.926823,92.018814 52.870918,92.028076 51.418663,92.028900 
z"/>
<path fill="#516869" opacity="1.000000" stroke="none" 
	d="
M95.017799,51.001347 
	C94.968246,52.307949 94.918694,53.614552 94.482574,54.626762 
	C94.157394,53.266533 94.218765,52.200703 94.459488,51.073502 
	C94.638840,51.012131 95.017799,51.001347 95.017799,51.001347 
z"/>
<path fill="#B2BFC0" opacity="1.000000" stroke="none" 
	d="
M94.280136,51.134869 
	C94.218765,52.200703 94.157394,53.266533 94.180069,54.724144 
	C94.062172,55.384483 93.860222,55.653042 93.411850,55.974869 
	C93.101234,54.583500 93.037033,53.138859 93.349533,51.383026 
	C93.910873,51.092846 94.095505,51.113857 94.280136,51.134869 
z"/>
<path fill="#C3CECF" opacity="1.000000" stroke="none" 
	d="
M24.833389,94.799225 
	C24.744633,96.014336 24.655876,97.229454 24.054726,98.730804 
	C23.364758,99.010674 23.187180,99.004311 23.009605,98.997940 
	C23.034021,98.269913 23.058437,97.541893 23.325684,96.324020 
	C23.990137,95.489197 24.411762,95.144211 24.833389,94.799225 
z"/>
<path fill="#576D6E" opacity="1.000000" stroke="none" 
	d="
M91.200821,111.237129 
	C91.005058,111.026985 91.006767,110.597855 91.053467,110.388428 
	C91.877174,109.836365 92.654190,109.493736 93.757652,109.135529 
	C93.188255,109.895729 92.292427,110.671501 91.200821,111.237129 
z"/>
<path fill="#3B5354" opacity="1.000000" stroke="none" 
	d="
M41.202682,111.254379 
	C41.799618,110.353600 42.589851,109.669548 43.706329,109.057953 
	C43.153706,109.910629 42.274845,110.690865 41.202682,111.254379 
z"/>
<path fill="#3B5354" opacity="1.000000" stroke="none" 
	d="
M45.926254,106.831100 
	C45.640865,106.089188 45.687119,105.386337 46.072849,104.361107 
	C46.614784,104.026672 46.817238,104.014618 47.019695,104.002563 
	C46.765762,104.958427 46.511826,105.914299 45.926254,106.831100 
z"/>
<path fill="#E3E9EA" opacity="1.000000" stroke="none" 
	d="
M71.643005,108.378471 
	C72.266068,107.751328 72.846878,107.502052 73.744781,107.272522 
	C74.042076,108.264755 74.022278,109.237251 74.005295,110.576035 
	C73.847519,110.998444 73.686920,111.054565 73.221703,110.763680 
	C72.582359,110.346260 72.247627,110.275841 71.912903,110.205429 
	C71.808846,109.722404 71.704796,109.239372 71.643005,108.378471 
z"/>
<path fill="#ACBABA" opacity="1.000000" stroke="none" 
	d="
M156.135101,58.235558 
	C156.415695,58.920158 156.523621,59.972149 156.321533,61.015522 
	C155.995163,60.205585 155.978790,59.404266 156.135101,58.235558 
z"/>
<path fill="#B1BEBF" opacity="1.000000" stroke="none" 
	d="
M82.464195,36.893913 
	C82.705978,37.797676 82.649170,38.873089 82.285629,40.101616 
	C82.041130,39.191673 82.103363,38.128620 82.464195,36.893913 
z"/>
<path fill="#516869" opacity="1.000000" stroke="none" 
	d="
M92.587204,66.058075 
	C92.382896,65.265854 92.455811,64.382309 92.765213,63.249191 
	C92.955948,63.988659 92.910194,64.977699 92.587204,66.058075 
z"/>
<path fill="#597071" opacity="1.000000" stroke="none" 
	d="
M23.490410,68.942245 
	C23.684860,69.736885 23.599020,70.617569 23.285126,71.749832 
	C23.108088,71.010376 23.159101,70.019333 23.490410,68.942245 
z"/>
<path fill="#B1BEBF" opacity="1.000000" stroke="none" 
	d="
M80.550072,47.976398 
	C80.763313,48.859177 80.680473,49.911522 80.297348,51.109718 
	C80.082703,50.219032 80.168350,49.182503 80.550072,47.976398 
z"/>
<path fill="#516869" opacity="1.000000" stroke="none" 
	d="
M90.335236,77.981224 
	C90.160759,77.164375 90.289352,76.306786 90.658859,75.221069 
	C90.812614,75.975456 90.725464,76.957962 90.335236,77.981224 
z"/>
<path fill="#B1BEBF" opacity="1.000000" stroke="none" 
	d="
M29.027840,38.396343 
	C29.252958,38.000675 29.447081,37.998257 29.931690,38.016972 
	C30.083113,39.018635 29.944046,39.999157 29.520168,41.039848 
	C29.155855,40.329876 29.076349,39.559731 29.027840,38.396343 
z"/>
<path fill="#516869" opacity="1.000000" stroke="none" 
	d="
M24.899532,94.500854 
	C24.411762,95.144211 23.990137,95.489197 23.322811,95.959755 
	C23.486452,95.081078 23.895796,94.076820 24.659206,93.040230 
	C24.997410,93.406090 24.981544,93.804291 24.899532,94.500854 
z"/>
<path fill="#B2BFC0" opacity="1.000000" stroke="none" 
	d="
M104.858253,31.881409 
	C104.543724,32.892979 104.229195,33.904545 103.592468,35.011017 
	C103.186630,34.662315 103.102982,34.218708 103.303802,33.314774 
	C104.011589,32.530094 104.434921,32.205750 104.858253,31.881409 
z"/>
<path fill="#586F70" opacity="1.000000" stroke="none" 
	d="
M104.927307,31.556028 
	C104.434921,32.205750 104.011589,32.530094 103.345337,32.971058 
	C103.467789,32.088017 103.833176,31.088356 104.531471,30.014788 
	C104.908386,30.370802 104.952377,30.800726 104.927307,31.556028 
z"/>
<path fill="#BBC5C6" opacity="1.000000" stroke="none" 
	d="
M95.909958,25.735407 
	C95.219276,25.260359 94.572983,24.450996 93.978355,23.298580 
	C94.671463,23.770716 95.312897,24.585903 95.909958,25.735407 
z"/>
<path fill="#B2BFC0" opacity="1.000000" stroke="none" 
	d="
M184.216431,110.900269 
	C183.905685,110.391922 183.910461,110.011833 183.987885,109.353127 
	C184.754059,109.042122 185.447617,109.009735 186.524506,109.224991 
	C186.944290,109.653290 186.980728,109.833931 187.017151,110.014565 
	C186.188751,110.352554 185.360336,110.690544 184.216431,110.900269 
z"/>
<path fill="#B1BEBF" opacity="1.000000" stroke="none" 
	d="
M81.699692,33.033585 
	C82.250626,33.397816 82.686531,34.041435 82.949944,34.971092 
	C82.379852,34.609077 81.982254,33.961029 81.699692,33.033585 
z"/>
<path fill="#B1BEBF" opacity="1.000000" stroke="none" 
	d="
M31.009991,27.367756 
	C31.218678,26.997393 31.408627,26.993105 31.882984,27.007587 
	C32.059486,27.714342 31.951578,28.402328 31.584694,29.109608 
	C31.214228,28.663877 31.102741,28.198853 31.009991,27.367756 
z"/>
<path fill="#5F7476" opacity="1.000000" stroke="none" 
	d="
M187.344406,109.982994 
	C186.980728,109.833931 186.944290,109.653290 186.871368,109.198639 
	C187.341583,108.610176 187.848312,108.295708 188.667114,107.976929 
	C188.543350,108.632217 188.107498,109.291824 187.344406,109.982994 
z"/>
<path fill="#4E6567" opacity="1.000000" stroke="none" 
	d="
M57.231354,109.630493 
	C57.290352,110.082550 57.214645,110.272629 57.032135,110.750443 
	C56.655403,110.335152 56.385479,109.632126 56.418388,108.921799 
	C56.846367,109.065834 56.971512,109.217171 57.231354,109.630493 
z"/>
<path fill="#597071" opacity="1.000000" stroke="none" 
	d="
M25.514795,58.871033 
	C25.931833,59.339458 26.081062,59.803860 25.907673,60.628895 
	C25.395575,60.993263 25.206095,60.996994 25.016617,61.000721 
	C25.093407,60.289482 25.170197,59.578239 25.514795,58.871033 
z"/>
<path fill="#ACBABA" opacity="1.000000" stroke="none" 
	d="
M152.157913,78.811890 
	C152.587601,78.250366 153.314026,77.842911 154.325974,77.647995 
	C153.892532,78.229004 153.173599,78.597488 152.157913,78.811890 
z"/>
<path fill="#ACBABA" opacity="1.000000" stroke="none" 
	d="
M108.541878,77.983124 
	C109.257866,77.792007 110.076683,77.925995 111.010651,78.385124 
	C110.298767,78.576256 109.471733,78.442245 108.541878,77.983124 
z"/>
<path fill="#B1BEBF" opacity="1.000000" stroke="none" 
	d="
M25.004745,61.367283 
	C25.206095,60.996994 25.395575,60.993263 25.868843,61.006573 
	C26.051506,61.713490 25.950380,62.403366 25.590340,63.113014 
	C25.218576,62.666473 25.105726,62.200161 25.004745,61.367283 
z"/>
<path fill="#516869" opacity="1.000000" stroke="none" 
	d="
M22.809929,99.190376 
	C23.187180,99.004311 23.364758,99.010674 23.808565,99.003944 
	C24.137716,99.412666 24.200638,99.834496 24.216393,100.573868 
	C23.649567,100.388557 23.129910,99.885689 22.809929,99.190376 
z"/>
<path fill="#B1BEBF" opacity="1.000000" stroke="none" 
	d="
M26.970169,56.998680 
	C26.899405,57.710117 26.828638,58.421551 26.494738,59.133949 
	C26.075542,58.667694 25.919485,58.200481 26.079086,57.372131 
	C26.586554,57.006889 26.778360,57.002785 26.970169,56.998680 
z"/>
<path fill="#597071" opacity="1.000000" stroke="none" 
	d="
M26.993671,56.638794 
	C26.778360,57.002785 26.586554,57.006889 26.107655,56.990501 
	C25.949154,56.292835 26.077744,55.615662 26.465088,54.914764 
	C26.821619,55.353661 26.919397,55.816288 26.993671,56.638794 
z"/>
<path fill="#A0AFB0" opacity="1.000000" stroke="none" 
	d="
M46.980484,103.670761 
	C46.817238,104.014618 46.614784,104.026672 46.110016,104.004501 
	C45.615040,103.381172 45.422375,102.792076 45.386116,101.909363 
	C45.857731,101.704956 46.172939,101.794167 46.730919,101.943665 
	C46.962891,102.448967 46.952084,102.893967 46.980484,103.670761 
z"/>
<path fill="#BBC5C6" opacity="1.000000" stroke="none" 
	d="
M94.459488,51.073502 
	C94.095505,51.113857 93.910873,51.092846 93.449463,51.051949 
	C93.489151,50.354546 93.805626,49.677032 94.415237,48.948730 
	C94.805344,49.359818 94.902328,49.821693 95.008560,50.642460 
	C95.017799,51.001347 94.638840,51.012131 94.459488,51.073502 
z"/>
<path fill="#B2BFC0" opacity="1.000000" stroke="none" 
	d="
M100.976852,44.367535 
	C101.161964,43.993179 101.348198,43.987335 101.813446,43.998291 
	C102.020081,44.705757 101.947701,45.396420 101.614159,46.110016 
	C101.227989,45.667316 101.102982,45.201679 100.976852,44.367535 
z"/>
<path fill="#5F7476" opacity="1.000000" stroke="none" 
	d="
M186.327011,98.556290 
	C186.130310,98.219223 186.090866,97.933418 186.046570,97.214066 
	C186.315048,97.099159 186.588364,97.417793 186.788208,98.053329 
	C186.714752,98.370216 186.484283,98.607559 186.327011,98.556290 
z"/>
<path fill="#576D6E" opacity="1.000000" stroke="none" 
	d="
M72.019821,110.427353 
	C72.247627,110.275841 72.582359,110.346260 72.975304,110.697311 
	C72.684258,110.997993 72.381996,110.888435 72.019821,110.427353 
z"/>
<path fill="#B2BFC0" opacity="1.000000" stroke="none" 
	d="
M102.767540,42.154472 
	C102.552063,41.653316 102.561623,41.055080 102.786713,40.228264 
	C102.999023,40.685585 102.995804,41.371487 102.767540,42.154472 
z"/>
<path fill="#B1BEBF" opacity="1.000000" stroke="none" 
	d="
M32.794434,25.163357 
	C32.552246,24.666342 32.529125,24.063181 32.725861,23.229961 
	C32.968315,23.685673 32.990906,24.371443 32.794434,25.163357 
z"/>
<path fill="#FCFDFD" opacity="1.000000" stroke="none" 
	d="
M192.330017,48.360123 
	C190.882538,57.628044 189.573898,66.479965 187.930862,75.269363 
	C187.724106,76.375443 185.854599,77.748940 184.585037,77.956596 
	C182.016373,78.376740 179.330765,78.081932 175.716293,78.081932 
	C176.507355,72.548164 177.072296,67.565277 177.952438,62.638710 
	C180.282074,49.598557 182.995972,36.621361 185.032715,23.537502 
	C185.802200,18.594479 187.940292,17.069094 192.516144,17.766790 
	C194.125961,18.012245 195.783249,17.946192 197.980820,18.048544 
	C196.057877,28.280884 194.212051,38.102905 192.330017,48.360123 
z"/>
<path fill="#B2BFC0" opacity="1.000000" stroke="none" 
	d="
M126.770386,95.093674 
	C127.078049,95.809875 127.051758,96.536385 127.017281,97.626495 
	C126.818214,97.028053 126.627319,96.066017 126.770386,95.093674 
z"/>
<path fill="#3B5354" opacity="1.000000" stroke="none" 
	d="
M167.534470,107.110519 
	C166.585693,106.817360 166.095352,106.470100 165.310547,106.061180 
	C164.987854,104.630180 164.959641,103.260841 165.396301,101.426849 
	C166.910553,100.969467 167.959900,100.976753 169.009262,100.984039 
	C173.104721,101.640999 177.209396,102.247337 181.289047,102.991028 
	C182.290970,103.173668 183.211182,103.804657 184.168961,104.229523 
	C183.566345,104.890648 182.963730,105.551765 182.170685,106.555374 
	C177.317810,106.950714 172.655365,107.003563 167.534470,107.110519 
z"/>
<path fill="#ACBABA" opacity="1.000000" stroke="none" 
	d="
M168.972900,100.617950 
	C167.959900,100.976753 166.910553,100.969467 165.470306,101.021179 
	C164.728439,98.330620 164.377472,95.581055 163.973358,92.470474 
	C165.359848,92.734039 166.799484,93.358604 168.585266,93.939468 
	C168.933121,96.014465 168.934845,98.133156 168.972900,100.617950 
z"/>
<path fill="#A0AFB0" opacity="1.000000" stroke="none" 
	d="
M40.187355,106.852119 
	C39.765659,107.011894 39.536934,106.919121 39.009834,106.606522 
	C39.212811,105.902107 39.714165,105.417526 40.481419,104.875275 
	C40.624985,105.411598 40.502651,106.005585 40.187355,106.852119 
z"/>
<path fill="#A0AFB0" opacity="1.000000" stroke="none" 
	d="
M29.083595,97.136589 
	C29.657494,97.093727 30.187340,97.311630 30.998480,97.860443 
	C30.533030,97.926682 29.786285,97.662018 29.083595,97.136589 
z"/>
<path fill="#657A7A" opacity="1.000000" stroke="none" 
	d="
M87.905731,103.162926 
	C88.879745,103.561028 89.853767,103.959137 90.827782,104.357239 
	C90.065926,104.861679 89.304077,105.366127 88.176926,105.423248 
	C87.842995,104.371590 87.874359,103.767258 87.905731,103.162926 
z"/>
<path fill="#143433" opacity="1.000000" stroke="none" 
	d="
M87.554649,103.132492 
	C87.874359,103.767258 87.842995,104.371590 87.811043,105.280998 
	C87.398949,105.610664 86.987442,105.635254 86.267105,105.677933 
	C85.693230,105.030556 85.428185,104.365097 85.127258,103.426193 
	C85.795433,103.135849 86.499504,103.118950 87.554649,103.132492 
z"/>
<path fill="#C3CECF" opacity="1.000000" stroke="none" 
	d="
M145.184601,105.063385 
	C145.441803,105.551201 145.440811,106.141571 145.237686,106.868423 
	C144.999161,106.391914 144.962784,105.778931 145.184601,105.063385 
z"/>
<path fill="#C3CECF" opacity="1.000000" stroke="none" 
	d="
M152.756104,97.045822 
	C152.318893,96.714867 152.122177,96.277786 151.873566,95.483849 
	C152.213303,95.731232 152.604965,96.335464 152.756104,97.045822 
z"/>
<path fill="#AAB7B8" opacity="1.000000" stroke="none" 
	d="
M141.780853,103.094284 
	C141.598907,102.496078 141.678970,101.720428 142.020279,100.781830 
	C142.201965,101.384872 142.122406,102.150864 141.780853,103.094284 
z"/>
<path fill="#C3CECF" opacity="1.000000" stroke="none" 
	d="
M146.215942,100.984337 
	C146.426941,101.590309 146.341492,102.332741 146.026520,103.244339 
	C145.837830,102.649269 145.878662,101.885025 146.215942,100.984337 
z"/>
<path fill="#C3CECF" opacity="1.000000" stroke="none" 
	d="
M145.287949,103.532188 
	C145.440872,103.636894 145.384766,103.598412 145.423431,103.603279 
	C145.346390,103.646027 145.227158,103.721558 145.115967,103.711136 
	C145.006149,103.700836 144.904449,103.603661 144.799194,103.544586 
	C144.911133,103.505554 145.023087,103.466515 145.287949,103.532188 
z"/>
</svg>